<svg xmlns="http://www.w3.org/2000/svg" version="1.1" xmlns:xlink="http://www.w3.org/1999/xlink" xmlns:svgjs="http://svgjs.dev/svgjs" width="2000" height="573" viewBox="0 0 2000 573"><g transform="matrix(1,0,0,1,1.1349975385378457,0.06900870478381194)"><svg viewBox="0 0 328 94" data-background-color="#ffffff" preserveAspectRatio="xMidYMid meet" height="573" width="2000" xmlns="http://www.w3.org/2000/svg" xmlns:xlink="http://www.w3.org/1999/xlink"><g id="tight-bounds" transform="matrix(1,0,0,1,-0.18613959632020283,-0.011320799737660536)"><svg viewBox="0 0 328.3722791926404 94.0226415994753" height="94.0226415994753" width="328.3722791926404"><g><svg viewBox="0 0 328.3722791926404 94.0226415994753" height="94.0226415994753" width="328.3722791926404"><g><svg viewBox="0 0 328.3722791926404 94.0226415994753" height="94.0226415994753" width="328.3722791926404"><g id="textblocktransform"><svg viewBox="0 0 328.3722791926404 94.0226415994753" height="94.0226415994753" width="328.3722791926404" id="textblock"><g><svg viewBox="0 0 328.3722791926404 63.142450000000004" height="63.142450000000004" width="328.3722791926404"><g><svg><g></g><g></g></svg></g><g><svg><g><svg></svg></g><g></g></svg></g><g id="text-0"><svg viewBox="0 0 328.3722791926404 63.142450000000004" height="63.142450000000004" width="328.3722791926404"><g transform="matrix(1,0,0,1,0,3.552713678800501e-15)"><svg width="209.70721347093973" viewBox="-4.108642024688 -42.25 153.838642024688 47.025" height="63.14245" data-palette-color="#071e3e"><path d="M24.85-17.4L24.85-17.4Q24.8-17.25 24.68-17 24.55-16.75 24.4-16.48 24.25-16.2 24.1-16.03 23.95-15.85 23.9-15.9L23.9-15.9Q23.9-15.9 23.95-16.15 24-16.4 24.08-16.7 24.15-17 24.23-17.28 24.3-17.55 24.3-17.65L24.3-17.65Q25.05-21.65 24.3-24.55 23.55-27.45 21.78-29.3 20-31.15 17.43-32.05 14.85-32.95 12-33L12-33Q9.95-33 7.98-32.68 6-32.35 4.38-31.85 2.75-31.35 1.63-30.75 0.5-30.15 0.2-29.6L0.2-29.6Q-0.15-29 0-29.75L0-29.75Q0.4-31.05 2.13-32.15 3.85-33.25 6.15-33.95 8.45-34.65 10.98-34.88 13.5-35.1 15.55-34.6L15.55-34.6Q16.9-34.3 18.25-33.75 19.6-33.2 20.83-32.43 22.05-31.65 23.08-30.58 24.1-29.5 24.8-28.1L24.8-28.1Q26.15-25.4 26.13-22.53 26.1-19.65 24.85-17.4ZM28.1-17.75L28.1-17.75Q27.15-14.95 25.58-12.7 24-10.45 22.2-8.68 20.4-6.9 18.5-5.6 16.6-4.3 14.95-3.4L14.95-3.4Q14.45-3.15 14.1-3 13.75-2.85 13.75-2.95L13.75-2.95Q13.65-3 14.03-3.28 14.4-3.55 14.8-3.85L14.8-3.85Q17.6-6.1 20.23-8.6 22.85-11.1 24.95-14.3L24.95-14.3Q26-15.95 26.55-17.93 27.1-19.9 27.1-22 27.1-24.1 26.53-26.15 25.95-28.2 24.75-29.95L24.75-29.95Q23.15-32.25 20.88-33.6 18.6-34.95 16-35.48 13.4-36 10.65-35.8 7.9-35.6 5.35-34.85L5.35-34.85Q4.95-34.75 4.88-34.7 4.8-34.65 4.75-34.75L4.75-34.75Q4.7-34.85 4.9-34.95 5.1-35.05 5.25-35.15L5.25-35.15Q6.35-35.75 8.1-36.25 9.85-36.75 12.05-36.85 14.25-36.95 16.75-36.48 19.25-36 21.8-34.65L21.8-34.65Q24.55-33.15 26.08-30.85 27.6-28.55 28.2-26.13 28.8-23.7 28.7-21.43 28.6-19.15 28.1-17.75ZM6.35-0.6L6.35-0.6Q6.1-1 5.73-1.88 5.35-2.75 5.15-3.95L5.15-3.95Q5.05-4.55 5.03-5.3 5-6.05 5.05-6.73 5.1-7.4 5.2-7.85 5.3-8.3 5.5-8.3L5.5-8.3Q5.55-8.3 5.63-8.03 5.7-7.75 5.78-7.4 5.85-7.05 5.88-6.73 5.9-6.4 5.9-6.25L5.9-6.25Q6-4.95 6.23-3.65 6.45-2.35 6.9-1.15L6.9-1.15Q8.65-3.3 10.9-5.5 13.15-7.7 15.3-9.98 17.45-12.25 19.23-14.65 21-17.05 21.8-19.6L21.8-19.6Q22.35-21.35 22.03-23.25 21.7-25.15 20.75-26.7L20.75-26.7Q19.8-28.2 18.05-29.2 16.3-30.2 14.2-30.6L14.2-30.6Q13.35-30.75 12.53-30.85 11.7-30.95 10.8-30.95L10.8-30.95Q10.95-30.2 10.98-29.33 11-28.45 10.95-27.6 10.9-26.75 10.8-25.98 10.7-25.2 10.55-24.6L10.55-24.6Q9.85-21.9 8.9-19.18 7.95-16.45 6.9-13.95L6.9-13.95Q6.8-13.8 6.63-13.48 6.45-13.15 6.35-13.15L6.35-13.15Q6.25-13.15 6.25-13.55 6.25-13.95 6.3-14.1L6.3-14.1Q6.35-14.7 6.5-15.58 6.65-16.45 6.83-17.35 7-18.25 7.2-19.13 7.4-20 7.6-20.6L7.6-20.6Q7.7-20.9 7.98-22.05 8.25-23.2 8.55-24.7 8.85-26.2 9.13-27.88 9.4-29.55 9.5-30.95L9.5-30.95 8.9-30.95Q8.8-29 8.35-26.95 7.9-24.9 7.28-22.83 6.65-20.75 5.98-18.65 5.3-16.55 4.8-14.45L4.8-14.45Q4.7-14 4.53-12.9 4.35-11.8 4.25-10.43 4.15-9.05 4.15-7.53 4.15-6 4.38-4.63 4.6-3.25 5.05-2.15 5.5-1.05 6.35-0.6ZM22.95-18.15L22.95-18.15Q21.85-15.55 19.93-13.15 18-10.75 15.75-8.53 13.5-6.3 11.13-4.3 8.75-2.3 6.8-0.5L6.8-0.5Q6.4-0.15 5.78-0.43 5.15-0.7 4.85-1.1L4.85-1.1Q3.8-2.5 3.3-4.25 2.8-6 2.7-7.88 2.6-9.75 2.83-11.68 3.05-13.6 3.5-15.4L3.5-15.4Q4.5-19.55 5.78-23.43 7.05-27.3 7.65-30.8L7.65-30.8Q4.95-30.5 2.83-29.58 0.7-28.65 0-27.35L0-27.35Q0-27.25-0.08-27.25-0.15-27.25-0.05-27.65L-0.05-27.65Q0.35-29.05 1.9-30.08 3.45-31.1 5.6-31.68 7.75-32.25 10.23-32.35 12.7-32.45 15.05-32.05L15.05-32.05Q17.6-31.6 19.48-30.13 21.35-28.65 22.43-26.68 23.5-24.7 23.68-22.45 23.85-20.2 22.95-18.15ZM12.2-29.5L12.2-29.5Q12.8-28.2 12.68-26.1 12.55-24 12.1-21.73 11.65-19.45 11.08-17.35 10.5-15.25 10.2-13.95L10.2-13.95Q9.6-11.55 8.75-9.15 7.9-6.75 7.35-4.95L7.35-4.95Q7.1-4.25 7-4.25L7-4.25Q6.85-4.25 6.85-4.53 6.85-4.8 6.85-5.05L6.85-5.05Q7-8.75 7.93-12.35 8.85-15.95 9.95-19.65L9.95-19.65Q10.6-21.9 11.2-24.35 11.8-26.8 11.9-29.5L11.9-29.5Q11.9-29.85 12-29.9L12-29.9Q12.05-29.9 12.1-29.75 12.15-29.6 12.2-29.5ZM18.15-8.75L18.15-8.75Q18.2-8.7 17.95-8.35 17.7-8 17.32-7.58 16.95-7.15 16.57-6.73 16.2-6.3 16.05-6.15L16.05-6.15Q15-5.1 13.93-4.03 12.85-2.95 11.7-2.2L11.7-2.2 7.2 0.65Q7.1 0.7 6.93 0.75 6.75 0.8 6.65 0.75L6.65 0.75Q6.55 0.7 6.58 0.6 6.6 0.5 6.65 0.4L6.65 0.4Q6.7 0.3 6.8 0.2L6.8 0.2Q7.65-0.4 8.72-1.3 9.8-2.2 10.95-3.15L10.95-3.15Q11.8-3.8 12.98-4.8 14.15-5.8 15.28-6.7 16.4-7.6 17.23-8.22 18.05-8.85 18.15-8.75ZM39.8-26.35L39.8-26.35Q38.95-23.4 37.87-20.3 36.8-17.2 35.65-14.45L35.65-14.45Q35.6-14.3 35.37-13.9 35.15-13.5 35-13.55L35-13.55Q34.9-13.55 34.87-14.03 34.85-14.5 34.9-14.75L34.9-14.75Q35-15.4 35.2-16.35 35.4-17.3 35.62-18.3 35.85-19.3 36.07-20.25 36.3-21.2 36.55-21.9L36.55-21.9Q36.65-22.2 36.9-23.2 37.15-24.2 37.45-25.6 37.75-27 38.07-28.6 38.4-30.2 38.62-31.7 38.85-33.2 38.95-34.45 39.05-35.7 38.9-36.35L38.9-36.35Q38.75-36.85 38.9-36.85L38.9-36.85Q39-36.85 39.07-36.73 39.15-36.6 39.25-36.5L39.25-36.5Q39.75-35.6 40.02-34.3 40.3-33 40.35-31.6 40.4-30.2 40.25-28.8 40.1-27.4 39.8-26.35ZM37.8-37.9L37.8-37.9Q38.45-35.35 38.12-32.55 37.8-29.75 37-26.85 36.2-23.95 35.2-20.98 34.2-18 33.5-15L33.5-15Q33.05-13.1 32.77-11.08 32.5-9.05 32.5-7.08 32.5-5.1 32.82-3.28 33.15-1.45 33.95 0L33.95 0Q34.05 0.2 34.02 0.3 34 0.4 33.7 0L33.7 0Q32.4-1.5 31.77-3.4 31.15-5.3 31.05-7.4 30.95-9.5 31.25-11.75 31.55-14 32.1-16.15L32.1-16.15Q32.85-19.15 33.77-22.05 34.7-24.95 35.52-27.7 36.35-30.45 36.9-33.02 37.45-35.6 37.45-38L37.45-38Q37.45-38.25 37.5-38.25L37.5-38.25Q37.7-38.25 37.8-37.9ZM46.9 0L46.9 0Q45.05-0.85 43.95-2.65 42.85-4.45 42.6-6.8L42.6-6.8Q42.35-9.1 42.6-10.63 42.85-12.15 43.2-13.65L43.2-13.65Q43.25-13.85 43.4-14.33 43.55-14.8 43.62-15.3 43.7-15.8 43.62-16.18 43.55-16.55 43.2-16.65L43.2-16.65Q42.5-16.8 41.6-16.03 40.7-15.25 39.87-14.1 39.05-12.95 38.37-11.73 37.7-10.5 37.5-9.8L37.5-9.8Q37.05-8.35 36.55-7.05 36.05-5.75 35.65-4.45L35.65-4.45Q35.5-3.9 35.4-3.95L35.4-3.95Q35.3-3.95 35.27-4.15 35.25-4.35 35.25-4.6L35.25-4.6Q35.25-6.6 35.55-8.63 35.85-10.65 36.37-12.65 36.9-14.65 37.55-16.65 38.2-18.65 38.8-20.7L38.8-20.7Q39.6-23.25 40.32-25.9 41.05-28.55 41.3-31.6L41.3-31.6Q41.3-31.85 41.3-31.88 41.3-31.9 41.35-31.9L41.35-31.9Q41.5-31.9 41.6-31.5L41.6-31.5Q41.85-30.85 41.82-29.68 41.8-28.5 41.62-27.1 41.45-25.7 41.12-24.25 40.8-22.8 40.45-21.65L40.45-21.65Q41.4-22.65 42.7-23.2 44-23.75 45.8-23.5L45.8-23.5Q47.85-23.2 48.95-22.03 50.05-20.85 50.45-19.2 50.85-17.55 50.67-15.68 50.5-13.8 50.05-12.05L50.05-12.05Q49.65-10.7 49.3-9.68 48.95-8.65 48.6-7.8 48.25-6.95 48-6.2 47.75-5.45 47.6-4.6L47.6-4.6Q47.5-4.05 47.4-4.05L47.4-4.05Q47.3-4.05 47.22-4.25 47.15-4.45 47.1-4.65L47.1-4.65Q46.8-5.75 47.07-7.35 47.35-8.95 47.8-10.73 48.25-12.5 48.62-14.33 49-16.15 48.92-17.7 48.85-19.25 48.1-20.43 47.35-21.6 45.55-22.05L45.55-22.05Q44.8-22.25 43.92-22.18 43.05-22.1 42.27-21.78 41.5-21.45 40.9-20.85 40.3-20.25 40.1-19.45L40.1-19.45Q41.05-20.45 42.55-21.1 44.05-21.75 45.45-21.3L45.45-21.3Q46.75-20.9 47.3-19.85 47.85-18.8 47.95-18L47.95-18Q48.15-16.25 47.72-14.83 47.3-13.4 46.75-12.1L46.75-12.1Q46.65-11.95 46.45-11.63 46.25-11.3 46.15-11.35L46.15-11.35Q46.05-11.35 46.05-11.75 46.05-12.15 46.1-12.35L46.1-12.35Q46.25-12.85 46.35-13.93 46.45-15 46.42-16.15 46.4-17.3 46.12-18.3 45.85-19.3 45.25-19.65L45.25-19.65Q44.55-20.05 43.55-19.88 42.55-19.7 41.4-18.65L41.4-18.65Q40.4-17.75 39.7-16.57 39-15.4 38.5-13.5L38.5-13.5Q38.8-14.05 39.45-15.05 40.1-16.05 40.92-16.95 41.75-17.85 42.67-18.38 43.6-18.9 44.45-18.5L44.45-18.5Q45-18.2 45.17-17.48 45.35-16.75 45.27-15.85 45.2-14.95 45-14.1 44.8-13.25 44.65-12.75L44.65-12.75Q44.1-11.25 43.9-9.47 43.7-7.7 43.92-6 44.15-4.3 44.9-2.8 45.65-1.3 47.1-0.25L47.1-0.25Q47.55 0 47.27 0 47 0 46.9 0ZM48.2-0.4L48.2-0.4Q47.5-0.8 46.87-1.25 46.25-1.7 45.65-3L45.65-3Q45.4-3.5 45.27-4.35 45.15-5.2 45.12-5.98 45.1-6.75 45.2-7.28 45.3-7.8 45.45-7.75L45.45-7.75Q45.55-7.75 45.65-7.53 45.75-7.3 45.8-7 45.85-6.7 45.9-6.43 45.95-6.15 45.95-6.05L45.95-6.05Q46.15-4.95 46.3-4.42 46.45-3.9 46.7-3.3L46.7-3.3Q47.1-2.5 47.5-1.85 47.9-1.2 48.5-0.65L48.5-0.65Q48.75-0.45 48.62-0.35 48.5-0.25 48.2-0.4ZM35.55 0L35.55 0Q35.6 0 35.47 0.05 35.35 0.1 35 0L35 0Q34.6-0.2 34.17-0.75 33.75-1.3 33.5-2.9L33.5-2.9Q33.4-3.55 33.4-4.48 33.4-5.4 33.47-6.23 33.55-7.05 33.7-7.65 33.85-8.25 34.05-8.2L34.05-8.2Q34.1-8.2 34.15-7.9 34.2-7.6 34.25-7.23 34.3-6.85 34.3-6.48 34.3-6.1 34.3-5.95L34.3-5.95Q34.35-4.85 34.42-4.33 34.5-3.8 34.65-2.9L34.65-2.9Q34.8-1.95 35-1.18 35.2-0.4 35.55 0ZM58.25-16.65L58.25-16.65Q57.85-14.95 57.12-13.08 56.4-11.2 55.5-9.6L55.5-9.6Q55.5-9.5 55.37-9.28 55.25-9.05 55.05-9.05L55.05-9.05Q54.95-9.05 54.92-9.35 54.9-9.65 54.95-9.75L54.95-9.75Q54.95-10.55 55.15-11.88 55.35-13.2 55.65-14.05L55.65-14.05Q55.75-14.35 55.97-15.5 56.2-16.65 56.37-18.07 56.55-19.5 56.57-20.83 56.6-22.15 56.25-22.8L56.25-22.8 56.25-23Q56.45-23.15 56.7-22.9L56.7-22.9Q57.35-22.35 57.72-21.55 58.1-20.75 58.27-19.88 58.45-19 58.42-18.15 58.4-17.3 58.25-16.65ZM60.2-16.85L60.2-16.85Q60.75-17.55 61.25-17.85 61.75-18.15 62.25-18.35L62.25-18.35Q62.3-18.35 62.5-18.4 62.7-18.45 62.8-18.3L62.8-18.3Q62.9-18.15 62.75-17.95 62.6-17.75 62.5-17.65L62.5-17.65Q62.15-17.3 61.72-16.88 61.3-16.45 60.95-16.05L60.95-16.05Q60.45-15.5 60.15-14.78 59.85-14.05 59.7-13.3L59.7-13.3Q60.55-14.2 61.32-15 62.1-15.8 63-16.5L63-16.5Q64.15-17.35 65-18.7 65.84-20.05 66.2-22.65L66.2-22.65Q66.3-22.9 66.45-22.95 66.59-23 66.59-22.6L66.59-22.6Q66.75-19.7 66-18 65.25-16.3 63.75-15.15L63.75-15.15Q62.95-14.55 62.15-13.85 61.35-13.15 60.62-12.3 59.9-11.45 59.3-10.3 58.7-9.15 58.25-7.65L58.25-7.65Q57.9-6.5 57.55-5.48 57.2-4.45 56.8-3.5L56.8-3.5Q56.7-3.15 56.5-3.15L56.5-3.15Q56.35-3.2 56.35-3.65L56.35-3.65Q56.1-6.05 56.67-8.43 57.25-10.8 58.05-13.35L58.05-13.35Q58.4-14.6 58.87-15.85 59.35-17.1 59.3-18.7L59.3-18.7Q59.3-19.25 59.75-19.85 60.2-20.45 60.85-20.98 61.5-21.5 62.2-21.88 62.9-22.25 63.4-22.4L63.4-22.4Q63.85-22.55 63.85-22.35 63.85-22.15 63.55-21.85L63.55-21.85Q62.5-20.9 61.42-19.6 60.35-18.3 60.2-16.85ZM55.85-0.05L55.85-0.05Q55.8 0 55.77-0.03 55.75-0.05 55.5-0.2L55.5-0.2Q54-1.3 53.15-2.6 52.3-3.9 51.92-5.28 51.55-6.65 51.6-8.03 51.65-9.4 51.95-10.7L51.95-10.7Q52.35-12.45 52.92-14.18 53.5-15.9 54-17.53 54.5-19.15 54.75-20.73 55-22.3 54.75-23.75L54.75-23.75Q54.75-23.85 54.9-23.9L54.9-23.9Q54.95-23.9 55-23.83 55.05-23.75 55.1-23.7L55.1-23.7Q56.05-22.1 56.05-20.43 56.05-18.75 55.6-17.03 55.15-15.3 54.47-13.53 53.8-11.75 53.4-9.95L53.4-9.95Q52.9-7.65 53.32-5.05 53.75-2.45 55.65-0.4L55.65-0.4Q55.75-0.25 55.85-0.2 55.95-0.15 55.85-0.05ZM57.35 0L57.35 0Q57.25 0 57.15-0.05L57.15-0.05 56.95-0.15Q56.25-0.6 55.7-1.13 55.15-1.65 54.75-2.65L54.75-2.65Q54.6-3 54.5-3.58 54.4-4.15 54.37-4.65 54.35-5.15 54.42-5.5 54.5-5.85 54.7-5.8L54.7-5.8Q54.85-5.8 55.02-5.4 55.2-5 55.3-4.6L55.3-4.6Q55.4-4.05 55.52-3.55 55.65-3.05 55.85-2.65L55.85-2.65Q56.4-1.4 57.3-0.25L57.3-0.25Q57.4 0 57.35 0ZM65.5-22.45L65.5-22.45Q65.5-21.4 64.9-20.6 64.3-19.8 63.45-19.25L63.45-19.25Q63.3-19.15 63.25-19.28 63.2-19.4 63.2-19.45L63.2-19.45Q63.2-19.75 63.45-20.18 63.7-20.6 64.02-21.08 64.34-21.55 64.65-22.05 64.95-22.55 65.05-22.95L65.05-22.95Q65.2-23.2 65.34-22.95 65.5-22.7 65.5-22.45ZM83.04-15.8L83.04-15.8Q82.44-13.95 81.62-12.25 80.79-10.55 79.89-8.85L79.89-8.85Q79.79-8.75 79.59-8.38 79.39-8 79.24-8.1L79.24-8.1Q79.14-8.1 79.17-8.4 79.19-8.7 79.19-8.85L79.19-8.85Q79.24-9.25 79.42-10 79.59-10.75 79.82-11.58 80.04-12.4 80.27-13.18 80.49-13.95 80.64-14.4L80.64-14.4Q81.49-17.1 81.74-19.2 81.99-21.3 81.44-22.75L81.44-22.75Q81.34-23 81.44-23L81.44-23Q81.54-23 81.64-22.9 81.74-22.8 81.79-22.75L81.79-22.75Q82.34-22.15 82.69-21.23 83.04-20.3 83.19-19.33 83.34-18.35 83.29-17.4 83.24-16.45 83.04-15.8ZM84.39-19.4L84.39-19.4Q85.04-18.4 84.99-16.9 84.94-15.4 84.62-13.8 84.29-12.2 83.82-10.75 83.34-9.3 83.09-8.45L83.09-8.45Q82.59-6.8 81.89-5.08 81.19-3.35 80.64-2.1L80.64-2.1Q80.44-1.65 80.34-1.7L80.34-1.7Q80.19-1.75 80.17-1.93 80.14-2.1 80.14-2.2L80.14-2.2Q80.14-4.9 80.92-7.4 81.69-9.9 82.59-12.45L82.59-12.45Q83.14-14.1 83.59-15.73 84.04-17.35 84.04-19.3L84.04-19.3Q84.04-19.65 84.14-19.65L84.14-19.65Q84.19-19.65 84.24-19.58 84.29-19.5 84.39-19.4ZM74.39-3.7L74.39-3.7Q74.49-3.55 74.04-3.25 73.59-2.95 73.44-2.9L73.44-2.9Q71.24-2.1 70.02-2.85 68.79-3.6 68.27-5.1 67.74-6.6 67.74-8.43 67.74-10.25 67.94-11.7L67.94-11.7Q68.09-12.95 68.52-14.48 68.94-16 69.54-17.48 70.14-18.95 70.92-20.23 71.69-21.5 72.59-22.2L72.59-22.2Q72.69-22.25 72.82-22.35 72.94-22.45 73.04-22.45L73.04-22.45Q73.19-22.4 72.89-21.9L72.89-21.9Q72.59-21.4 72.17-20.5 71.74-19.6 71.29-18.43 70.84-17.25 70.42-15.95 69.99-14.65 69.74-13.35L69.74-13.35Q69.49-12.05 69.39-10.85 69.29-9.65 69.29-8.7 69.29-7.75 69.34-7.1 69.39-6.45 69.44-6.25L69.44-6.25Q69.79-4.7 70.77-3.98 71.74-3.25 73.39-3.55L73.39-3.55Q73.44-3.55 73.89-3.65 74.34-3.75 74.39-3.7ZM80.84 0.15L80.84 0.15Q81.04 0.35 81.04 0.45L81.04 0.45Q81.04 0.55 80.82 0.5 80.59 0.45 80.49 0.4L80.49 0.4Q80.09 0.2 79.49-0.18 78.89-0.55 78.59-1.5L78.59-1.5Q78.44-1.9 78.39-2.48 78.34-3.05 78.34-3.55 78.34-4.05 78.44-4.38 78.54-4.7 78.69-4.65L78.69-4.65Q78.79-4.6 78.92-4.2 79.04-3.8 79.14-3.35L79.14-3.35Q79.24-2.8 79.39-2.33 79.54-1.85 79.74-1.35L79.74-1.35Q79.99-0.8 80.24-0.48 80.49-0.15 80.84 0.15ZM76.24-2.6L76.24-2.6Q75.69-1.75 74.57-0.88 73.44 0 71.54 0L71.54 0Q70.04 0 68.97-0.8 67.89-1.6 67.22-2.8 66.54-4 66.27-5.43 65.99-6.85 65.99-8.15L65.99-8.15Q66.04-9.75 66.27-11.35 66.49-12.95 66.87-14.35 67.24-15.75 67.72-16.85 68.19-17.95 68.69-18.65L68.69-18.65Q68.79-18.7 68.92-18.88 69.04-19.05 69.14-18.95L69.14-18.95Q69.19-18.9 69.12-18.73 69.04-18.55 68.99-18.45L68.99-18.45Q68.54-16.95 68.12-15.28 67.69-13.6 67.44-11.9 67.19-10.2 67.19-8.55 67.19-6.9 67.49-5.5L67.49-5.5Q67.69-4.55 68.22-3.75 68.74-2.95 69.37-2.4 69.99-1.85 70.72-1.6 71.44-1.35 72.14-1.45L72.14-1.45Q73.59-1.65 74.34-2.27 75.09-2.9 75.42-3.78 75.74-4.65 75.82-5.68 75.89-6.7 76.04-7.75L76.04-7.75Q75.79-7.05 75.07-6.38 74.34-5.7 73.52-5.33 72.69-4.95 71.92-5 71.14-5.05 70.74-5.9L70.74-5.9Q70.24-7 70.19-8.3 70.14-9.6 70.24-11.15L70.24-11.15Q70.34-12.7 70.69-14.35 71.04-16 71.64-17.53 72.24-19.05 73.07-20.4 73.89-21.75 74.94-22.8L74.94-22.8 75.14-23Q75.29-23.15 75.44-23.15L75.44-23.15Q75.44-23.15 75.24-22.65L75.24-22.65Q73.79-19.95 72.79-17.07 71.79-14.2 71.59-11.25L71.59-11.25Q71.34-8 71.92-7 72.49-6 73.34-6.43 74.19-6.85 75.17-8.28 76.14-9.7 76.74-11.35L76.74-11.35Q77.29-12.85 77.92-14.45 78.54-16.05 79.07-17.68 79.59-19.3 79.87-20.85 80.14-22.4 79.99-23.75L79.99-23.75Q79.99-24 80.09-24L80.09-24Q80.14-24 80.14-23.95L80.14-23.95Q80.14-23.85 80.19-23.85L80.19-23.85Q80.24-23.8 80.24-23.75L80.24-23.75Q81.04-22.05 80.97-20.3 80.89-18.55 80.37-16.75 79.84-14.95 79.12-13.08 78.39-11.2 77.89-9.3L77.89-9.3Q77.59-8.1 77.44-6.78 77.29-5.45 77.39-4.15 77.49-2.85 77.94-1.68 78.39-0.5 79.24 0.3L79.24 0.3Q79.34 0.4 79.34 0.45L79.34 0.45Q79.34 0.55 79.22 0.53 79.09 0.5 78.99 0.45L78.99 0.45Q78.04 0.1 77.34-0.7 76.64-1.5 76.24-2.6ZM91.69-18.45L91.69-18.45Q91.74-18.9 91.99-19.53 92.24-20.15 92.67-20.73 93.09-21.3 93.69-21.78 94.29-22.25 95.04-22.4L95.04-22.4Q96.64-22.7 97.69-22.2 98.74-21.7 99.29-21.05L99.29-21.05Q99.49-20.75 99.44-20.7L99.44-20.7Q99.34-20.6 99.09-20.75L99.09-20.75Q98.79-20.95 98.12-21.1 97.44-21.25 96.67-21.18 95.89-21.1 95.17-20.7 94.44-20.3 93.99-19.4L93.99-19.4Q93.59-18.55 93.44-17.65 93.29-16.75 93.27-15.98 93.24-15.2 93.29-14.65 93.34-14.1 93.34-13.9L93.34-13.9Q93.44-13.35 93.52-12.53 93.59-11.7 93.59-10.85 93.59-10 93.54-9.18 93.49-8.35 93.34-7.75L93.34-7.75Q93.29-7.6 93.22-7.25 93.14-6.9 93.04-6.9L93.04-6.9Q92.79-6.9 92.79-7.25 92.79-7.6 92.79-7.75L92.79-7.75Q92.69-9 92.44-10.28 92.19-11.55 91.97-12.9 91.74-14.25 91.64-15.63 91.54-17 91.69-18.45ZM89.94-8.55L89.94-8.55Q89.99-9.55 89.77-11.38 89.54-13.2 89.59-15.6L89.59-15.6Q89.64-16.85 89.84-18.18 90.04-19.5 90.79-20.8L90.79-20.8Q91.59-22.2 92.82-22.88 94.04-23.55 94.94-23.5L94.94-23.5Q95.09-23.5 95.24-23.5 95.39-23.5 95.39-23.45L95.39-23.45Q95.39-23.35 95.34-23.38 95.29-23.4 94.99-23.3L94.99-23.3Q94.09-23.05 93.39-22.48 92.69-21.9 92.19-21.15 91.69-20.4 91.39-19.6 91.09-18.8 91.04-18.15L91.04-18.15Q90.74-15.4 91.09-13.35L91.09-13.35Q91.34-11.7 91.49-9.93 91.64-8.15 91.37-6.68 91.09-5.2 90.32-4.23 89.54-3.25 87.94-3.15L87.94-3.15Q87.79-3.15 87.57-3.18 87.34-3.2 87.34-3.3L87.34-3.3Q87.34-3.4 87.79-3.65L87.79-3.65Q89.09-4.25 89.49-5.4 89.89-6.55 89.94-8.55ZM84.64-2.65L84.64-2.65Q85.34-1.55 86.87-1.03 88.39-0.5 90.49-1.1L90.49-1.1Q91.54-1.4 92.34-2.15 93.14-2.9 93.67-3.83 94.19-4.75 94.47-5.75 94.74-6.75 94.79-7.6L94.79-7.6Q94.84-9 94.72-10.35 94.59-11.7 94.42-12.98 94.24-14.25 94.12-15.45 93.99-16.65 94.09-17.8L94.09-17.8Q94.19-19.05 94.79-19.7 95.39-20.35 96.27-20.53 97.14-20.7 98.09-20.4 99.04-20.1 99.84-19.45L99.84-19.45Q100.04-19.35 99.99-19.2L99.99-19.2Q99.99-19.1 99.89-19.15 99.79-19.2 99.69-19.25L99.69-19.25Q97.84-19.85 96.82-19.6 95.79-19.35 95.69-17.8L95.69-17.8Q95.59-16 95.97-13.58 96.34-11.15 96.24-8.2L96.24-8.2Q96.29-7.2 96.02-5.9 95.74-4.6 95.12-3.38 94.49-2.15 93.47-1.2 92.44-0.25 91.04 0L91.04 0Q88.39 0.4 86.82-0.3 85.24-1 84.54-2.45L84.54-2.45Q84.44-2.75 84.44-2.8L84.44-2.8 84.49-2.8Q84.49-2.8 84.64-2.65ZM86.84-2.65L86.84-2.65Q87.79-2.4 89.14-2.45L89.14-2.45Q89.59-2.5 90.24-2.7 90.89-2.9 90.94-2.8L90.94-2.8Q91.09-2.6 90.64-2.3 90.19-2 89.49-1.78 88.79-1.55 88.04-1.48 87.29-1.4 86.79-1.6L86.79-1.6Q85.84-2 85.42-2.48 84.99-2.95 84.64-3.65L84.64-3.65 84.54-3.85Q84.44-4.05 84.49-4.1L84.49-4.1Q84.54-4.15 84.64-4.1L84.64-4.1Q84.69-4.05 84.69-4L84.69-4Q85.29-3.45 85.72-3.18 86.14-2.9 86.84-2.65ZM109.59-26.35L109.59-26.35Q108.74-23.4 107.66-20.3 106.59-17.2 105.44-14.45L105.44-14.45Q105.39-14.3 105.16-13.9 104.94-13.5 104.79-13.55L104.79-13.55Q104.69-13.55 104.66-14.03 104.64-14.5 104.69-14.75L104.69-14.75Q104.79-15.4 104.99-16.35 105.19-17.3 105.41-18.3 105.64-19.3 105.86-20.25 106.09-21.2 106.34-21.9L106.34-21.9Q106.44-22.2 106.69-23.2 106.94-24.2 107.24-25.6 107.54-27 107.86-28.6 108.19-30.2 108.41-31.7 108.64-33.2 108.74-34.45 108.84-35.7 108.69-36.35L108.69-36.35Q108.54-36.85 108.69-36.85L108.69-36.85Q108.79-36.85 108.86-36.73 108.94-36.6 109.04-36.5L109.04-36.5Q109.54-35.6 109.81-34.3 110.09-33 110.14-31.6 110.19-30.2 110.04-28.8 109.89-27.4 109.59-26.35ZM107.59-37.9L107.59-37.9Q108.24-35.35 107.91-32.55 107.59-29.75 106.79-26.85 105.99-23.95 104.99-20.98 103.99-18 103.29-15L103.29-15Q102.84-13.1 102.56-11.08 102.29-9.05 102.29-7.08 102.29-5.1 102.61-3.28 102.94-1.45 103.74 0L103.74 0Q103.84 0.2 103.81 0.3 103.79 0.4 103.49 0L103.49 0Q102.19-1.5 101.56-3.4 100.94-5.3 100.84-7.4 100.74-9.5 101.04-11.75 101.34-14 101.89-16.15L101.89-16.15Q102.64-19.15 103.56-22.05 104.49-24.95 105.31-27.7 106.14-30.45 106.69-33.02 107.24-35.6 107.24-38L107.24-38Q107.24-38.25 107.29-38.25L107.29-38.25Q107.49-38.25 107.59-37.9ZM116.69 0L116.69 0Q114.84-0.85 113.74-2.65 112.64-4.45 112.39-6.8L112.39-6.8Q112.14-9.1 112.39-10.63 112.64-12.15 112.99-13.65L112.99-13.65Q113.04-13.85 113.19-14.33 113.34-14.8 113.41-15.3 113.49-15.8 113.41-16.18 113.34-16.55 112.99-16.65L112.99-16.65Q112.29-16.8 111.39-16.03 110.49-15.25 109.66-14.1 108.84-12.95 108.16-11.73 107.49-10.5 107.29-9.8L107.29-9.8Q106.84-8.35 106.34-7.05 105.84-5.75 105.44-4.45L105.44-4.45Q105.29-3.9 105.19-3.95L105.19-3.95Q105.09-3.95 105.06-4.15 105.04-4.35 105.04-4.6L105.04-4.6Q105.04-6.6 105.34-8.63 105.64-10.65 106.16-12.65 106.69-14.65 107.34-16.65 107.99-18.65 108.59-20.7L108.59-20.7Q109.39-23.25 110.11-25.9 110.84-28.55 111.09-31.6L111.09-31.6Q111.09-31.85 111.09-31.88 111.09-31.9 111.14-31.9L111.14-31.9Q111.29-31.9 111.39-31.5L111.39-31.5Q111.64-30.85 111.61-29.68 111.59-28.5 111.41-27.1 111.24-25.7 110.91-24.25 110.59-22.8 110.24-21.65L110.24-21.65Q111.19-22.65 112.49-23.2 113.79-23.75 115.59-23.5L115.59-23.5Q117.64-23.2 118.74-22.03 119.84-20.85 120.24-19.2 120.64-17.55 120.46-15.68 120.29-13.8 119.84-12.05L119.84-12.05Q119.44-10.7 119.09-9.68 118.74-8.65 118.39-7.8 118.04-6.95 117.79-6.2 117.54-5.45 117.39-4.6L117.39-4.6Q117.29-4.05 117.19-4.05L117.19-4.05Q117.09-4.05 117.01-4.25 116.94-4.45 116.89-4.65L116.89-4.65Q116.59-5.75 116.86-7.35 117.14-8.95 117.59-10.73 118.04-12.5 118.41-14.33 118.79-16.15 118.71-17.7 118.64-19.25 117.89-20.43 117.14-21.6 115.34-22.05L115.34-22.05Q114.59-22.25 113.71-22.18 112.84-22.1 112.06-21.78 111.29-21.45 110.69-20.85 110.09-20.25 109.89-19.45L109.89-19.45Q110.84-20.45 112.34-21.1 113.84-21.75 115.24-21.3L115.24-21.3Q116.54-20.9 117.09-19.85 117.64-18.8 117.74-18L117.74-18Q117.94-16.25 117.51-14.83 117.09-13.4 116.54-12.1L116.54-12.1Q116.44-11.95 116.24-11.63 116.04-11.3 115.94-11.35L115.94-11.35Q115.84-11.35 115.84-11.75 115.84-12.15 115.89-12.35L115.89-12.35Q116.04-12.85 116.14-13.93 116.24-15 116.21-16.15 116.19-17.3 115.91-18.3 115.64-19.3 115.04-19.65L115.04-19.65Q114.34-20.05 113.34-19.88 112.34-19.7 111.19-18.65L111.19-18.65Q110.19-17.75 109.49-16.57 108.79-15.4 108.29-13.5L108.29-13.5Q108.59-14.05 109.24-15.05 109.89-16.05 110.71-16.95 111.54-17.85 112.46-18.38 113.39-18.9 114.24-18.5L114.24-18.5Q114.79-18.2 114.96-17.48 115.14-16.75 115.06-15.85 114.99-14.95 114.79-14.1 114.59-13.25 114.44-12.75L114.44-12.75Q113.89-11.25 113.69-9.47 113.49-7.7 113.71-6 113.94-4.3 114.69-2.8 115.44-1.3 116.89-0.25L116.89-0.25Q117.34 0 117.06 0 116.79 0 116.69 0ZM117.99-0.4L117.99-0.4Q117.29-0.8 116.66-1.25 116.04-1.7 115.44-3L115.44-3Q115.19-3.5 115.06-4.35 114.94-5.2 114.91-5.98 114.89-6.75 114.99-7.28 115.09-7.8 115.24-7.75L115.24-7.75Q115.34-7.75 115.44-7.53 115.54-7.3 115.59-7 115.64-6.7 115.69-6.43 115.74-6.15 115.74-6.05L115.74-6.05Q115.94-4.95 116.09-4.42 116.24-3.9 116.49-3.3L116.49-3.3Q116.89-2.5 117.29-1.85 117.69-1.2 118.29-0.65L118.29-0.65Q118.54-0.45 118.41-0.35 118.29-0.25 117.99-0.4ZM105.34 0L105.34 0Q105.39 0 105.26 0.05 105.14 0.1 104.79 0L104.79 0Q104.39-0.2 103.96-0.75 103.54-1.3 103.29-2.9L103.29-2.9Q103.19-3.55 103.19-4.48 103.19-5.4 103.26-6.23 103.34-7.05 103.49-7.65 103.64-8.25 103.84-8.2L103.84-8.2Q103.89-8.2 103.94-7.9 103.99-7.6 104.04-7.23 104.09-6.85 104.09-6.48 104.09-6.1 104.09-5.95L104.09-5.95Q104.14-4.85 104.21-4.33 104.29-3.8 104.44-2.9L104.44-2.9Q104.59-1.95 104.79-1.18 104.99-0.4 105.34 0ZM135.74-22.2L135.74-22.2Q135.79-22.15 135.79-21.98 135.79-21.8 135.74-21.7L135.74-21.7Q135.29-20.25 134.19-19.65 133.09-19.05 132.24-19.05L132.24-19.05Q131.19-19.05 130.09-19.23 128.99-19.4 127.99-20.15L127.99-20.15Q127.89-20.25 127.74-20.35 127.59-20.45 127.59-20.55L127.59-20.55Q127.59-20.7 127.74-20.78 127.89-20.85 127.99-20.9L127.99-20.9Q128.44-21 129.16-21.08 129.89-21.15 130.59-21.05L130.59-21.05Q131.09-20.95 131.79-20.95 132.49-20.95 133.21-21.05 133.94-21.15 134.54-21.38 135.14-21.6 135.44-22.05L135.44-22.05Q135.59-22.25 135.74-22.2ZM136.09-23.75L136.09-23.75 135.94-23.5Q135.09-22.4 134.14-22.08 133.19-21.75 132.14-21.8 131.09-21.85 130.01-22.08 128.94-22.3 127.89-22.35L127.89-22.35Q126.49-22.4 125.09-21.5 123.69-20.6 122.69-18.35L122.69-18.35Q122.54-18.05 122.49-18.23 122.44-18.4 122.49-18.55L122.49-18.55Q122.89-20.05 123.44-21.05 123.99-22.05 124.61-22.68 125.24-23.3 125.94-23.6 126.64-23.9 127.39-24L127.39-24Q128.24-26.85 128.71-29.58 129.19-32.3 128.79-34.75L128.79-34.75Q128.79-34.95 128.79-34.95L128.79-34.95Q128.89-35 128.99-34.9 129.09-34.8 129.09-34.75L129.09-34.75Q130.19-32.35 129.99-29.63 129.79-26.9 128.99-23.9L128.99-23.9Q129.24-23.85 129.39-23.85 129.54-23.85 129.74-23.85L129.74-23.85Q129.99-25.15 130.21-26.63 130.44-28.1 130.56-29.45 130.69-30.8 130.64-31.9 130.59-33 130.29-33.55L130.29-33.55Q130.14-34 130.29-34L130.29-34Q130.39-34 130.44-33.9 130.49-33.8 130.59-33.7L130.59-33.7Q131.29-33 131.69-31.8 132.09-30.6 132.24-29.25 132.39-27.9 132.34-26.58 132.29-25.25 132.04-24.25L132.04-24.25 131.84-23.45Q131.99-23.35 132.14-23.35 132.29-23.35 132.44-23.3L132.44-23.3Q132.74-24.8 132.96-26.3 133.19-27.8 133.14-29.45L133.14-29.45Q133.14-29.8 133.19-29.8L133.19-29.8Q133.29-29.8 133.34-29.65 133.39-29.5 133.44-29.4L133.44-29.4Q134.04-28.3 134.01-26.65 133.99-25 133.74-23.15L133.74-23.15Q134.84-23.15 135.84-23.75L135.84-23.75Q136.09-23.9 136.09-23.75ZM125.74-20.35L125.74-20.35Q125.74-20.1 125.46-19.85 125.19-19.6 125.04-19.5L125.04-19.5Q124.79-19.3 124.46-19.03 124.14-18.75 123.89-18.45L123.89-18.45Q123.64-18.05 123.41-17.75 123.19-17.45 123.04-16.9L123.04-16.9Q122.99-16.8 122.91-16.73 122.84-16.65 122.79-16.7L122.79-16.7Q122.64-16.85 122.79-17.35L122.79-17.35Q122.99-18.1 123.19-18.57 123.39-19.05 123.94-19.6L123.94-19.6Q124.14-19.8 124.44-20 124.74-20.2 125.04-20.35 125.34-20.5 125.54-20.5 125.74-20.5 125.74-20.35ZM129.64-0.25L129.64-0.25Q129.89-0.35 129.84-0.2 129.79-0.05 129.69 0L129.69 0Q128.79 0.3 127.79-0.1 126.79-0.5 125.94-1.35 125.09-2.2 124.49-3.33 123.89-4.45 123.74-5.55L123.74-5.55Q123.49-7.9 123.69-10.1 123.89-12.3 124.44-14.45L124.44-14.45 125.29-17.6Q124.99-17.6 124.69-17.75L124.69-17.75Q124.34-17.85 124.34-18L124.34-18Q124.34-18.1 124.69-18.3L124.69-18.3Q126.09-19 127.51-18.9 128.94-18.8 130.39-18.55L130.39-18.55Q131.29-18.4 132.21-18.32 133.14-18.25 134.24-18.7L134.24-18.7Q134.34-18.8 134.44-18.75L134.44-18.75Q134.54-18.65 134.39-18.4L134.39-18.4Q134.09-17.75 133.54-17.45 132.99-17.15 132.39-17L132.39-17Q131.99-15.7 131.69-14.68 131.39-13.65 131.19-12.95L131.19-12.95Q130.64-10.55 129.91-8.08 129.19-5.6 128.94-3.9L128.94-3.9Q128.84-3.35 128.74-3.3L128.74-3.3Q128.64-3.25 128.54-3.5 128.44-3.75 128.39-3.9L128.39-3.9Q128.19-5.35 128.31-6.93 128.44-8.5 128.79-10.15 129.14-11.8 129.59-13.48 130.04-15.15 130.54-16.85L130.54-16.85Q130.29-16.85 130.04-16.85 129.79-16.85 129.54-16.9L129.54-16.9Q129.14-15.85 128.71-14.83 128.29-13.8 127.89-12.9L127.89-12.9Q127.84-12.8 127.66-12.43 127.49-12.05 127.39-12.05L127.39-12.05Q127.19-12.1 127.24-12.53 127.29-12.95 127.29-13.1L127.29-13.1Q127.39-13.85 127.61-14.85 127.84-15.85 128.04-17L128.04-17Q127.79-17.05 127.49-17.07 127.19-17.1 126.89-17.2L126.89-17.2Q126.59-16.2 126.31-15.25 126.04-14.3 125.79-13.35L125.79-13.35Q125.39-11.6 125.19-9.63 124.99-7.65 125.19-5.55L125.19-5.55Q125.29-4.6 125.71-3.6 126.14-2.6 126.74-1.8 127.34-1 128.11-0.55 128.89-0.1 129.64-0.25ZM130.09-1.35L130.09-1.35Q130.34-1.55 130.39-1.38 130.44-1.2 130.19-1.05L130.19-1.05Q129.99-0.9 129.66-0.83 129.34-0.75 128.94-0.8 128.54-0.85 128.09-1.1 127.64-1.35 127.24-1.9L127.24-1.9Q126.89-2.35 126.66-3.2 126.44-4.05 126.34-4.88 126.24-5.7 126.29-6.3 126.34-6.9 126.54-6.9L126.54-6.9Q126.79-6.9 126.91-6.2 127.04-5.5 127.14-5.05L127.14-5.05Q127.34-4.25 127.69-3.4 128.04-2.55 128.44-2.05L128.44-2.05Q128.94-1.4 129.34-1.28 129.74-1.15 130.09-1.35ZM141.58-16.5L141.58-16.5Q141.73-17.15 141.76-18 141.78-18.85 141.63-19.75 141.48-20.65 141.11-21.48 140.73-22.3 140.13-22.9L140.13-22.9Q139.83-23.1 139.78-23.1L139.78-23.1Q139.58-23.1 139.78-22.8L139.78-22.8Q140.08-22.15 140.01-20.78 139.93-19.4 139.68-17.93 139.43-16.45 139.16-15.28 138.88-14.1 138.83-13.85L138.83-13.85Q138.48-12.95 138.21-11.6 137.93-10.25 137.93-9.4L137.93-9.4Q137.88-9.3 137.88-9 137.88-8.7 138.03-8.65L138.03-8.65Q138.08-8.65 138.23-8.9 138.38-9.15 138.48-9.25L138.48-9.25Q139.38-10.85 140.21-12.75 141.03-14.65 141.58-16.5ZM141.78-8.95L141.78-8.95Q141.98-9.85 142.43-11.28 142.88-12.7 143.18-14.23 143.48-15.75 143.48-17.23 143.48-18.7 142.88-19.65L142.88-19.65Q142.68-19.85 142.58-19.85L142.58-19.85Q142.48-19.85 142.53-19.65L142.53-19.65Q142.53-17.75 142.11-16.13 141.68-14.5 141.18-12.95L141.18-12.95Q140.33-10.4 139.63-7.98 138.93-5.55 139.03-3L139.03-3Q139.03-2.85 139.06-2.68 139.08-2.5 139.23-2.5L139.23-2.5Q139.33-2.5 139.38-2.6 139.43-2.7 139.53-2.9L139.53-2.9Q140.03-4.1 140.68-5.73 141.33-7.35 141.78-8.95ZM138.23 0L138.23 0Q137.28-1 136.78-2.23 136.28-3.45 136.08-4.73 135.88-6 135.98-7.3 136.08-8.6 136.38-9.75L136.38-9.75Q136.83-11.55 137.53-13.35 138.23-15.15 138.73-16.93 139.23-18.7 139.31-20.43 139.38-22.15 138.58-23.8L138.58-23.8Q138.43-24.05 138.38-24.05L138.38-24.05Q138.33-24.05 138.33-23.98 138.33-23.9 138.38-23.85L138.38-23.85Q138.53-22.35 138.18-20.75 137.83-19.15 137.28-17.48 136.73-15.8 136.06-14.03 135.38-12.25 134.93-10.4L134.93-10.4Q134.58-9.05 134.46-7.65 134.33-6.25 134.63-4.88 134.93-3.5 135.73-2.25 136.53-1 138.03 0.05L138.03 0.05Q138.13 0.15 138.28 0.18 138.43 0.2 138.23 0ZM138.63-1.9L138.63-1.9Q138.48-2.3 138.31-2.9 138.13-3.5 138.03-4.05L138.03-4.05Q137.93-4.25 137.78-4.8 137.63-5.35 137.53-5.35L137.53-5.35Q137.33-5.35 137.26-5 137.18-4.65 137.18-4.13 137.18-3.6 137.26-3.03 137.33-2.45 137.48-2.05L137.48-2.05Q137.78-1.05 138.21-0.65 138.63-0.25 139.33 0L139.33 0Q139.63 0.15 139.78 0.15L139.78 0.15Q139.83 0.15 139.81 0.08 139.78 0 139.73 0L139.73 0Q139.38-0.4 139.11-0.85 138.83-1.3 138.63-1.9ZM142.53-27.75L142.53-27.75Q142.28-27.75 141.76-27.83 141.23-27.9 141.23-28.3L141.23-28.3Q141.23-28.45 141.68-28.68 142.13-28.9 142.68-29.33 143.23-29.75 143.68-30.43 144.13-31.1 144.13-32.15L144.13-32.15Q144.13-33.45 143.63-34.1L143.63-34.1Q143.53-34.25 143.38-34.43 143.23-34.6 143.28-34.65L143.28-34.65Q143.38-34.65 143.51-34.58 143.63-34.5 143.68-34.45L143.68-34.45Q144.68-33.9 145.21-33.02 145.73-32.15 145.73-31.35L145.73-31.35Q145.73-29.75 144.98-28.75 144.23-27.75 142.53-27.75ZM140.68-29.75L140.68-29.75Q140.08-29.5 140.08-30.05L140.08-30.05Q140.08-30.45 140.38-30.83 140.68-31.2 140.96-31.65 141.23-32.1 141.33-32.68 141.43-33.25 141.03-34.1L141.03-34.1Q140.93-34.35 140.68-34.65 140.43-34.95 140.53-35L140.53-35Q140.63-35.05 140.96-34.93 141.28-34.8 141.38-34.75L141.38-34.75Q142.23-34.35 142.66-33.55 143.08-32.75 143.08-32.15L143.08-32.15Q143.08-31.2 142.31-30.58 141.53-29.95 140.68-29.75ZM139.23-32.45L139.23-32.45Q139.23-32.7 139.38-33.02 139.53-33.35 139.88-33.35L139.88-33.35Q140.13-33.35 140.28-33.02 140.43-32.7 140.43-32.45L140.43-32.45Q140.43-32.25 140.28-31.93 140.13-31.6 139.88-31.6L139.88-31.6Q139.53-31.6 139.38-31.9 139.23-32.2 139.23-32.45Z" opacity="1" transform="matrix(1,0,0,1,0,0)" fill="#071e3e" class="wordmark-text-0" data-fill-palette-color="primary"></path></svg></g><g><svg xmlns="http://www.w3.org/2000/svg" xmlns:xlink="http://www.w3.org/1999/xlink" version="1.1" x="224.61476347093975" y="0" viewBox="2.232 19.937632457089784 95.768 58.28036754291022" enable-background="new 0 0 100 100" xml:space="preserve" height="63.142450000000004" width="103.75751572170067" class="icon-dxe-0" data-fill-palette-color="accent" id="dxe-0"><g fill="#071e3e" data-fill-palette-color="accent"><path d="M7.817 64.722L7.878 64.67C8.545 64.106 14.644 59.031 23.85 54.117 33.057 49.2 45.363 44.463 58.414 44.467 59.661 44.467 60.915 44.51 62.174 44.6 70.423 45.188 76.538 47.249 80.687 49.826 84.841 52.399 87.498 55.485 88 58.045L88.673 57.81 88.034 57.444 88.032 57.447C87.976 57.624 87.066 60.367 82.711 65.001 78.346 69.635 71.217 74.414 59.702 75.241 54.206 75.632 49.044 75.818 44.269 75.818 34.74 75.818 26.744 75.074 20.718 73.753 17.706 73.096 15.187 72.292 13.23 71.387 11.271 70.485 9.886 69.474 9.1 68.485A1.2 1.2 0 0 0 7.225 69.985C8.359 71.396 10.05 72.558 12.222 73.565 15.484 75.07 19.865 76.219 25.252 77.009 30.638 77.796 37.027 78.217 44.269 78.218 49.106 78.218 54.324 78.034 59.873 77.639 72.188 76.772 80.339 73.109 85 68.034 89.669 62.958 93.87 57.709 93.905 57.602L94 57.306 93.964 57C92.786 51.233 86.502 46.83 81.953 44 76.721 40.754 72.167 38.799 62.931 38.138A55 55 0 0 0 59 38C44.924 38.005 31.327 46.617 21.818 51.808 12.309 57.004 6.293 62.866 6.25 62.903A1.2 1.2 0 1 0 7.817 64.722" fill="#071e3e" data-fill-palette-color="accent"></path></g><g fill="#071e3e" data-fill-palette-color="accent"><path d="M61.06 54.809H60.06A11.57 11.57 0 0 1 56.661 63.015 11.57 11.57 0 0 1 48.454 66.414 11.57 11.57 0 0 1 40.247 63.015 11.56 11.56 0 0 1 36.848 54.809C36.848 51.601 38.146 48.706 40.247 46.602A11.56 11.56 0 0 1 48.454 43.203C51.662 43.203 54.557 44.5 56.661 46.602A11.57 11.57 0 0 1 60.06 54.809zH62.06C62.059 47.294 55.969 41.204 48.454 41.203S34.848 47.294 34.848 54.809 40.94 68.413 48.454 68.414C55.969 68.413 62.059 62.323 62.06 54.809z" fill="#071e3e" data-fill-palette-color="accent"></path><path d="M53.256 56.609A4.2 4.2 0 0 1 49.054 52.407C49.054 50.279 50.641 48.539 52.694 48.262A7.76 7.76 0 0 0 48.454 47.004 7.804 7.804 0 0 0 48.454 62.612C52.573 62.612 55.937 59.42 56.23 55.377A4.2 4.2 0 0 1 53.256 56.609" fill="#071e3e" data-fill-palette-color="accent"></path><polyline points="36.697,51.543 46.302,55.145 47.004,53.271 37.399,49.67  " fill="#071e3e" data-fill-palette-color="accent"></polyline><polyline points="35.958,57.604 46.763,56.403 46.542,54.415 35.737,55.615  " fill="#071e3e" data-fill-palette-color="accent"></polyline><polyline points="39.457,46.485 46.309,55.268 47.886,54.037 41.034,45.255  " fill="#071e3e" data-fill-palette-color="accent"></polyline><polyline points="38.804,62.243 47.805,56.241 46.695,54.577 37.694,60.579  " fill="#071e3e" data-fill-palette-color="accent"></polyline><polyline points="43.301,66.053 48.735,55.881 46.971,54.938 41.537,65.109  " fill="#071e3e" data-fill-palette-color="accent"></polyline><polyline points="48.853,67.414 48.853,55.409 46.853,55.409 46.853,67.414  " fill="#071e3e" data-fill-palette-color="accent"></polyline></g><path d="M39 44S47.404 39.198 47.404 31.994C47.404 31.994 48.604 39.198 46.203 41.599S39 44 39 44" fill="#071e3e" data-fill-palette-color="accent"></path><path d="M47.746 40.846S56.822 37.482 58 30.375C58 30.375 58.007 37.678 55.245 39.654 52.484 41.631 47.746 40.846 47.746 40.846" fill="#071e3e" data-fill-palette-color="accent"></path><path d="M55 40.38S64.369 37.951 66.259 31C66.259 31 65.528 38.266 62.58 39.953 59.634 41.641 55 40.38 55 40.38" fill="#071e3e" data-fill-palette-color="accent"></path><path d="M63.744 40.549S73.112 38.117 75 31.165C75 31.165 74.271 38.432 71.324 40.12S63.744 40.549 63.744 40.549" fill="#071e3e" data-fill-palette-color="accent"></path><path d="M70 42.075S79.679 42.205 83.337 36C83.337 36 80.713 42.815 77.425 43.664 74.138 44.514 70 42.075 70 42.075" fill="#071e3e" data-fill-palette-color="accent"></path><path d="M78 45.725S87.617 44.621 90.455 38C90.455 38 88.341 45.864 85.187 47.125 82.035 48.387 78 45.725 78 45.725" fill="#071e3e" data-fill-palette-color="accent"></path><path d="M83.866 50.329S93.382 48.553 95.748 41.749C95.748 41.749 93.561 49.901 90.505 51.38S83.866 50.329 83.866 50.329" fill="#071e3e" data-fill-palette-color="accent"></path><path d="M86.271 52.801C91.932 54.818 94.667 54.834 98 45.417 98 45.417 96.271 57.241 93 58.156 89.73 59.073 86.271 52.801 86.271 52.801" fill="#071e3e" data-fill-palette-color="accent"></path><path d="M2.232 48.206S28.738 22.983 51.455 20.592C74.267 18.191 79.068 22.993 82.67 25.395 82.67 25.395 69.465 18.191 50.255 24.194 37.189 28.277 28.644 33.799 14.237 44.604 10.162 47.66 3.433 48.206 2.232 48.206" fill="#071e3e" data-fill-palette-color="accent"></path></svg></g></svg></g></svg></g><g transform="matrix(1,0,0,1,3.5,75.78173135681597)"><svg viewBox="0 0 321.3722791926404 18.240910242659336" height="18.240910242659336" width="321.3722791926404"><g transform="matrix(1,0,0,1,0,0)"><svg width="321.3722791926404" viewBox="-3.45 -39.625 946.5576922938801 54.675" height="18.240910242659336" data-palette-color="#071e3e"><path d="M23.7-0.05L23.7-0.05 1.15-0.15Q0.7-0.15 0.55-0.6L0.55-0.6Q0.55-0.75 0.63-0.98 0.7-1.2 0.9-1.25L0.9-1.25Q1.15-1.35 1.4-1.4 1.65-1.45 1.85-1.5L1.85-1.5Q2.6-1.7 3.63-2.35 4.65-3 4.7-4L4.7-4 6.05-29.45Q6.1-30.75 4.93-31.5 3.75-32.25 2.65-32.55L2.65-32.55Q2-32.75 2.3-33.3L2.3-33.3Q2.4-33.55 2.68-33.6 2.95-33.65 3.15-33.65L3.15-33.65 25.25-33.75Q26.5-33.75 26.45-32.45L26.45-32.45 26.15-26.6Q26.1-25.9 25.53-25.9 24.95-25.9 24.85-26.35L24.85-26.35Q24.45-28.65 23.9-29.78 23.35-30.9 22.03-31.28 20.7-31.65 17.9-31.65L17.9-31.65 7.95-31.65Q9.2-31.45 9.33-30.6 9.45-29.75 9.4-29L9.4-29 8.85-18.1 14.95-18.1Q16.8-18.1 17.82-18.6 18.85-19.1 19.5-20.3L19.5-20.3Q19.75-20.7 20.28-20.65 20.8-20.6 20.75-19.8L20.75-19.8 20.45-14.2Q20.4-13.4 19.9-13.43 19.4-13.45 19.2-13.8L19.2-13.8Q18.65-14.95 17.7-15.55 16.75-16.15 15-16.15L15-16.15 8.75-16.15 8.05-2.35 16.4-2.35Q19.2-2.35 20.63-2.65 22.05-2.95 22.73-4.05 23.4-5.15 23.9-7.5L23.9-7.5Q24-7.95 24.58-7.88 25.15-7.8 25.1-7.1L25.1-7.1 24.8-1.45Q24.75-0.65 24.5-0.35 24.25-0.05 23.7-0.05ZM45.8-0.1L45.8-0.1 46.5-17.25Q46.6-19.5 45.75-20.58 44.9-21.65 43.45-21.65L43.45-21.65Q41.3-21.65 39.22-20.05 37.15-18.45 36-15.5L36-15.5Q35.45-14.05 35.27-12.65 35.1-11.25 35-9.1L35-9.1 34.65-2.7Q34.6-1 34.02-0.5 33.45 0 31.6-0.15L31.6-0.15 32.6-20Q32.4-20.2 31.7-19.75L31.7-19.75Q29.7-18.65 28.3-20.15L28.3-20.15Q29.15-20.7 30.35-21.53 31.55-22.35 32.62-23.05 33.7-23.75 34.05-23.85L34.05-23.85Q34.75-24.1 35.22-23.83 35.7-23.55 35.65-22.9L35.65-22.9 35.3-17.15Q35.85-18.75 37.27-20.45 38.7-22.15 40.65-23.33 42.6-24.5 44.7-24.5L44.7-24.5Q45.95-24.5 47.2-23.83 48.45-23.15 49.17-21.45 49.9-19.75 49.6-16.6L49.6-16.6Q50.1-18.45 51.45-20.25 52.8-22.05 54.77-23.28 56.75-24.5 59-24.5L59-24.5Q60.9-24.5 62.45-23 64-21.5 63.9-18.45L63.9-18.45 63.3-4.55Q63.25-3.95 63.47-3.43 63.7-2.9 64.5-2.9L64.5-2.9Q65-2.9 65.8-3.35 66.6-3.8 67.2-4.6L67.2-4.6Q67.45-4.95 67.8-4.85 68.15-4.75 68.05-4.25L68.05-4.25Q67.75-2.7 66.37-1.38 65-0.05 63.15-0.05L63.15-0.05Q61.65-0.05 60.9-1.03 60.15-2 60.2-3.2L60.2-3.2 60.85-18.15Q60.95-19.75 60.15-20.7 59.35-21.65 57.75-21.65L57.75-21.65Q55.6-21.65 53.5-20.05 51.4-18.45 50.25-15.5L50.25-15.5Q49.7-14.05 49.47-12.65 49.25-11.25 49.15-9.1L49.15-9.1 48.8-2.7Q48.75-1 48.2-0.5 47.65 0 45.8-0.1ZM76.85-18.6L76.1 5.7 76 8.1Q75.95 9.55 75.32 10.28 74.7 11 72.75 10.8L72.75 10.8 73.75-14.7Q72.2-12.2 71.3-9.3L71.3-9.3Q71-9.3 70.65-9.68 70.3-10.05 70.55-11.05L70.55-11.05Q71.05-12.95 71.9-14.73 72.75-16.5 73.85-18L73.85-18 74.05-22.85Q74.05-24.1 75.07-24.65 76.1-25.2 77.05-24.7L77.05-24.7 76.95-21.3Q78.95-23.05 81.15-23.9 83.35-24.75 85.35-24.5L85.35-24.5Q88.2-24.2 90.05-22.35 91.9-20.5 92.7-17.7 93.5-14.9 93.1-11.65L93.1-11.65Q92.8-8.8 91.5-6.33 90.2-3.85 88.3-2.15 86.4-0.45 84.2 0.15L84.2 0.15Q82.8 0.5 81 0.38 79.2 0.25 78-0.6L78-0.6Q77.45-1 77.5-1.45 77.55-1.9 77.7-2.1L77.7-2.1Q79-1.25 80.8-1.25 82.6-1.25 84.35-2.35L84.35-2.35Q86.2-3.5 87.62-5.7 89.05-7.9 89.5-10.95L89.5-10.95Q89.9-13.75 89.4-16.1 88.9-18.45 87.65-19.98 86.4-21.5 84.5-21.8L84.5-21.8Q82.7-22.15 80.7-21.28 78.7-20.4 76.85-18.6L76.85-18.6ZM107.54 0.35L107.54 0.35Q104.59 0.35 102.17-1.23 99.74-2.8 98.44-5.65 97.14-8.5 97.44-12.2L97.44-12.2Q97.79-15.9 99.47-18.7 101.14-21.5 103.79-23.08 106.44-24.65 109.64-24.65L109.64-24.65Q112.59-24.65 115.02-23.08 117.44-21.5 118.82-18.7 120.19-15.9 119.84-12.2L119.84-12.2Q119.54-8.5 117.82-5.65 116.09-2.8 113.42-1.23 110.74 0.35 107.54 0.35ZM100.89-12.2L100.89-12.2Q100.79-9.3 101.67-6.88 102.54-4.45 104.22-3.03 105.89-1.6 108.14-1.6L108.14-1.6Q110.39-1.6 112.19-3.03 113.99-4.45 115.12-6.88 116.24-9.3 116.34-12.2L116.34-12.2Q116.49-15.1 115.59-17.48 114.69-19.85 113.04-21.28 111.39-22.7 109.14-22.7L109.14-22.7Q106.89-22.7 105.07-21.28 103.24-19.85 102.14-17.48 101.04-15.1 100.89-12.2ZM134.04-3.2L134.04-3.2Q135.44-4.6 136.79-6.98 138.14-9.35 139.02-12.18 139.89-15 139.94-17.75 139.99-20.5 138.79-22.65L138.79-22.65Q139.09-23.4 139.89-23.8 140.69-24.2 141.49-24.18 142.29-24.15 142.49-23.45L142.49-23.45Q144.14-18.8 145.69-13.93 147.24-9.05 148.49-3.45L148.49-3.45Q150.09-5.3 151.44-7.73 152.79-10.15 153.67-12.7 154.54-15.25 154.79-17.43 155.04-19.6 154.44-20.95L154.44-20.95Q154.14-21.1 153.82-21.15 153.49-21.2 153.14-21.45L153.14-21.45Q152.79-21.7 152.82-22.15 152.84-22.6 153.19-23L153.19-23Q153.69-23.65 154.52-24.08 155.34-24.5 156.14-24.48 156.94-24.45 157.19-23.8L157.19-23.8Q157.69-22.65 157.79-20.98 157.89-19.3 157.74-17.85L157.74-17.85Q157.39-14.2 155.87-10.88 154.34-7.55 152.27-4.83 150.19-2.1 148.09-0.15L148.09-0.15Q147.59 0.3 147.02 0.18 146.44 0.05 146.34-0.45L146.34-0.45Q145.39-4.75 144.37-8.9 143.34-13.05 141.99-16.4L141.99-16.4Q141.99-12.85 140.67-9.73 139.34-6.6 137.39-4.1 135.44-1.6 133.49 0.1L133.49 0.1Q132.94 0.6 132.44 0.48 131.94 0.35 131.84-0.15L131.84-0.15Q131.09-4.2 130.22-7.48 129.34-10.75 128.34-13.78 127.34-16.8 126.09-20L126.09-20Q125.89-20.05 125.72-19.75 125.54-19.45 125.09-19.1L125.09-19.1Q124.74-18.75 124.14-18.68 123.54-18.6 122.64-19.1L122.64-19.1Q123.14-19.75 123.92-20.68 124.69-21.6 125.39-22.4 126.09-23.2 126.39-23.45L126.39-23.45Q126.94-23.9 127.47-23.83 127.99-23.75 128.19-23.2L128.19-23.2Q129.44-19.95 130.47-16.9 131.49-13.85 132.39-10.55 133.29-7.25 134.04-3.2ZM171.94-2.05L171.94-2.05Q173.94-1.9 175.51-2.55 177.09-3.2 178.19-4.2 179.29-5.2 179.79-6L179.79-6Q180.04-6.45 180.61-6.55 181.19-6.65 181.59-6.25L181.59-6.25Q181.44-5.75 180.84-4.67 180.24-3.6 179.06-2.45 177.89-1.3 176.09-0.48 174.29 0.35 171.84 0.35L171.84 0.35Q168.64 0.35 166.09-1.1 163.54-2.55 162.11-5.18 160.69-7.8 160.79-11.15L160.79-11.15Q160.89-14.35 162.14-16.9 163.39-19.45 165.34-21.23 167.29-23 169.64-23.93 171.99-24.85 174.24-24.85L174.24-24.85Q176.39-24.85 177.76-24.18 179.14-23.5 179.94-22.55 180.74-21.6 181.06-20.68 181.39-19.75 181.39-19.15L181.39-19.15Q181.39-17.2 180.16-15.55 178.94-13.9 176.91-12.7 174.89-11.5 172.39-10.88 169.89-10.25 167.29-10.25L167.29-10.25Q166.39-10.25 166.09-10.78 165.79-11.3 165.94-11.75L165.94-11.75Q167.79-11.75 169.86-12.3 171.94-12.85 173.79-13.83 175.64-14.8 176.81-16.03 177.99-17.25 177.99-18.55L177.99-18.55Q177.99-20.45 176.81-21.63 175.64-22.8 173.74-22.85L173.74-22.85Q171.19-22.9 169.16-21.35 167.14-19.8 165.91-17.28 164.69-14.75 164.54-11.8L164.54-11.8Q164.44-9.25 165.26-7.1 166.09-4.95 167.79-3.6 169.49-2.25 171.94-2.05ZM184.64-20.95L184.64-20.95Q185.49-21.5 186.69-22.33 187.89-23.15 188.96-23.85 190.04-24.55 190.39-24.65L190.39-24.65Q191.09-24.9 191.64-24.63 192.19-24.35 192.14-23.7L192.14-23.7 191.54-11.7Q192.24-15.5 193.81-18.25 195.39-21 197.24-22.63 199.09-24.25 200.49-24.65L200.49-24.65Q201.09-24.85 201.46-24.68 201.84-24.5 202.24-24.05L202.24-24.05Q203.04-23.15 203.09-22 203.14-20.85 202.14-20.7L202.14-20.7Q201.79-20.65 201.46-20.78 201.14-20.9 200.89-21L200.89-21Q199.64-21.1 198.04-19.9 196.44-18.7 194.94-16.28 193.44-13.85 192.36-10.33 191.29-6.8 191.09-2.25L191.09-2.25Q191.04-0.95 190.34-0.4 189.64 0.15 187.94-0.05L187.94-0.05 188.94-20.8Q188.84-20.85 188.64-20.83 188.44-20.8 188.04-20.55L188.04-20.55Q186.04-19.5 184.64-20.95ZM207.03-33.3L207.03-33.3Q206.88-33.8 207.48-34.02 208.08-34.25 209.03-34.1 209.98-33.95 210.88-33.45 211.78-32.95 212.18-32.05L212.18-32.05Q212.58-31.1 211.88-30.13 211.18-29.15 210.23-28.9L210.23-28.9Q209.78-28.75 208.91-28.9 208.03-29.05 207.93-29.9L207.93-29.9Q207.93-30.3 207.73-31.25 207.53-32.2 207.03-33.3ZM207.83-2.55L207.83-2.55 208.88-20.35Q208.83-20.4 208.66-20.38 208.48-20.35 207.98-20.1L207.98-20.1Q205.98-19.05 204.68-20.5L204.68-20.5Q205.48-21.05 206.68-21.88 207.88-22.7 208.96-23.4 210.03-24.1 210.38-24.2L210.38-24.2Q211.08-24.45 211.58-24.2 212.08-23.95 212.03-23.3L212.03-23.3 210.93-3.9Q210.88-3.3 211.11-2.78 211.33-2.25 212.13-2.25L212.13-2.25Q212.63-2.25 213.41-2.7 214.18-3.15 214.78-3.95L214.78-3.95Q215.03-4.3 215.41-4.2 215.78-4.1 215.68-3.6L215.68-3.6Q215.38-2.05 214.01-0.73 212.63 0.6 210.78 0.6L210.78 0.6Q209.28 0.6 208.53-0.38 207.78-1.35 207.83-2.55ZM221.48-0.15L221.48-0.15 222.38-19.95Q222.13-20.2 221.38-19.7L221.38-19.7Q219.43-18.65 218.03-20.1L218.03-20.1Q218.88-20.65 220.08-21.48 221.28-22.3 222.36-23 223.43-23.7 223.78-23.8L223.78-23.8Q224.48-24.05 224.96-23.78 225.43-23.5 225.38-22.85L225.38-22.85 224.98-15.8Q225.88-18 227.38-19.95 228.88-21.9 230.88-23.13 232.88-24.35 235.28-24.35L235.28-24.35Q236.38-24.35 237.63-23.83 238.88-23.3 239.73-22 240.58-20.7 240.43-18.25L240.43-18.25 239.58-4.25Q239.53-3.45 239.76-2.88 239.98-2.3 240.78-2.3L240.78-2.3Q241.33-2.3 241.98-2.8 242.63-3.3 242.98-4L242.98-4Q243.18-4.35 243.56-4.25 243.93-4.15 243.83-3.65L243.83-3.65Q243.53-2.2 242.36-0.95 241.18 0.3 239.43 0.3L239.43 0.3Q237.93 0.3 237.18-0.68 236.43-1.65 236.48-2.85L236.48-2.85 237.33-18.25Q237.43-19.7 236.51-20.6 235.58-21.5 234.03-21.55L234.03-21.55Q231.58-21.6 229.26-19.55 226.93-17.5 225.43-13.1L225.43-13.1Q225.18-12.35 225.01-11.4 224.83-10.45 224.78-9.3L224.78-9.3 224.53-2.95Q224.48-1.25 223.86-0.58 223.23 0.1 221.48-0.15ZM266.88-21.85L266.28-4.6Q266.13-0.1 265.05 3.45 263.98 7 261.6 9.03 259.23 11.05 255.08 11.05L255.08 11.05Q252.68 11.05 250.83 10.33 248.98 9.6 247.88 8.58 246.78 7.55 246.53 6.7L246.53 6.7Q246.33 6 246.83 5.35 247.33 4.7 248.43 4.35L248.43 4.35Q249.08 4.15 249.65 4.17 250.23 4.2 250.43 4.6L250.43 4.6Q250.68 4.95 250.6 5.43 250.53 5.9 250.38 6.3L250.38 6.3Q250.43 6.6 250.95 7.3 251.48 8 252.58 8.58 253.68 9.15 255.33 9.15L255.33 9.15Q257.58 9.15 259.08 8.03 260.58 6.9 261.45 5.03 262.33 3.15 262.75 0.98 263.18-1.2 263.23-3.25L263.23-3.25 263.43-8.7Q263.08-7.25 262.35-5.68 261.63-4.1 260.55-2.73 259.48-1.35 257.98-0.48 256.48 0.4 254.58 0.4L254.58 0.4Q252.43 0.4 250.6-0.8 248.78-2 247.68-4.23 246.58-6.45 246.58-9.45L246.58-9.45Q246.58-12.05 247.48-14.7 248.38-17.35 250.05-19.58 251.73-21.8 254.03-23.15 256.33-24.5 259.13-24.5L259.13-24.5Q262.23-24.5 264.18-23.58 266.13-22.65 266.88-21.85L266.88-21.85ZM249.78-9.4L249.78-9.4Q249.78-6.35 251.1-4.15 252.43-1.95 255.08-1.95L255.08-1.95Q256.83-1.95 258.3-3.03 259.78-4.1 260.9-5.85 262.03-7.6 262.68-9.63 263.33-11.65 263.43-13.55L263.43-13.55 263.73-19.4Q263.38-20.6 262.1-21.53 260.83-22.45 258.88-22.45L258.88-22.45Q256.58-22.45 254.88-21.15 253.18-19.85 252.05-17.8 250.93-15.75 250.35-13.53 249.78-11.3 249.78-9.4ZM308.92-0.05L308.92-0.05 286.37-0.15Q285.92-0.15 285.77-0.6L285.77-0.6Q285.77-0.75 285.85-0.98 285.92-1.2 286.12-1.25L286.12-1.25Q286.37-1.35 286.62-1.4 286.87-1.45 287.07-1.5L287.07-1.5Q287.82-1.7 288.85-2.35 289.87-3 289.92-4L289.92-4 291.27-29.45Q291.32-30.75 290.15-31.5 288.97-32.25 287.87-32.55L287.87-32.55Q287.22-32.75 287.52-33.3L287.52-33.3Q287.62-33.55 287.9-33.6 288.17-33.65 288.37-33.65L288.37-33.65 310.47-33.75Q311.72-33.75 311.67-32.45L311.67-32.45 311.37-26.6Q311.32-25.9 310.75-25.9 310.17-25.9 310.07-26.35L310.07-26.35Q309.67-28.65 309.12-29.78 308.57-30.9 307.25-31.28 305.92-31.65 303.12-31.65L303.12-31.65 293.17-31.65Q294.42-31.45 294.55-30.6 294.67-29.75 294.62-29L294.62-29 294.07-18.1 300.17-18.1Q302.02-18.1 303.05-18.6 304.07-19.1 304.72-20.3L304.72-20.3Q304.97-20.7 305.5-20.65 306.02-20.6 305.97-19.8L305.97-19.8 305.67-14.2Q305.62-13.4 305.12-13.43 304.62-13.45 304.42-13.8L304.42-13.8Q303.87-14.95 302.92-15.55 301.97-16.15 300.22-16.15L300.22-16.15 293.97-16.15 293.27-2.35 301.62-2.35Q304.42-2.35 305.85-2.65 307.27-2.95 307.95-4.05 308.62-5.15 309.12-7.5L309.12-7.5Q309.22-7.95 309.8-7.88 310.37-7.8 310.32-7.1L310.32-7.1 310.02-1.45Q309.97-0.65 309.72-0.35 309.47-0.05 308.92-0.05ZM323.12 0.35L323.12 0.35Q321.17 0.35 319.14-0.8 317.12-1.95 315.75-4.23 314.37-6.5 314.37-9.85L314.37-9.85Q314.37-12.4 315.25-15.03 316.12-17.65 317.77-19.88 319.42-22.1 321.77-23.43 324.12-24.75 327.07-24.7L327.07-24.7Q328.57-24.65 329.55-24.13 330.52-23.6 330.97-23.1L330.97-23.1Q331.37-22.65 331.47-22.18 331.57-21.7 330.87-21.3L330.87-21.3Q330.32-22.05 329.3-22.4 328.27-22.75 327.27-22.75L327.27-22.75Q324.82-22.75 323.07-21.45 321.32-20.15 320.19-18.18 319.07-16.2 318.55-14.08 318.02-11.95 318.02-10.3L318.02-10.3Q318.02-8 318.67-6.13 319.32-4.25 320.62-3.13 321.92-2 323.77-2L323.77-2Q325.52-2 327.02-2.98 328.52-3.95 329.69-5.5 330.87-7.05 331.57-8.78 332.27-10.5 332.32-11.95L332.32-11.95 333.02-31.65Q332.97-31.7 332.8-31.68 332.62-31.65 332.12-31.4L332.12-31.4Q330.12-30.35 328.82-31.8L328.82-31.8Q329.62-32.35 330.82-33.18 332.02-34 333.1-34.7 334.17-35.4 334.52-35.5L334.52-35.5Q335.22-35.75 335.72-35.5 336.22-35.25 336.17-34.6L336.17-34.6 335.07-3.95Q335.02-3.35 335.25-2.83 335.47-2.3 336.27-2.3L336.27-2.3Q336.77-2.3 337.57-2.75 338.37-3.2 338.97-4L338.97-4Q339.22-4.35 339.57-4.25 339.92-4.15 339.82-3.65L339.82-3.65Q339.52-2.1 338.14-0.78 336.77 0.55 334.92 0.55L334.92 0.55Q333.42 0.55 332.67-0.43 331.92-1.4 331.97-2.6L331.97-2.6 332.12-6.65Q331.42-5 330.12-3.4 328.82-1.8 327.07-0.73 325.32 0.35 323.12 0.35ZM349.92 0.55L349.92 0.55Q348.72 0.55 347.42 0 346.12-0.55 345.29-1.9 344.47-3.25 344.62-5.65L344.62-5.65 345.47-20.4Q345.42-20.45 345.22-20.43 345.02-20.4 344.52-20.15L344.52-20.15Q342.52-19.1 341.22-20.55L341.22-20.55Q342.07-21.1 343.27-21.93 344.47-22.75 345.52-23.45 346.57-24.15 346.92-24.25L346.92-24.25Q347.62-24.5 348.14-24.23 348.67-23.95 348.62-23.3L348.62-23.3 347.67-5.7Q347.62-4.3 348.52-3.3 349.42-2.3 351.17-2.25L351.17-2.25Q353.37-2.2 355.74-4.25 358.12-6.3 359.52-10.7L359.52-10.7Q359.77-11.55 359.97-12.93 360.17-14.3 360.22-15.35L360.22-15.35 360.57-21.65Q360.67-23.25 361.34-23.95 362.02-24.65 363.72-24.45L363.72-24.45 362.92-3.95Q362.87-3.35 363.09-2.83 363.32-2.3 364.12-2.3L364.12-2.3Q364.62-2.3 365.42-2.75 366.22-3.2 366.82-4L366.82-4Q367.07-4.35 367.42-4.25 367.77-4.15 367.67-3.65L367.67-3.65Q367.37-2.1 365.99-0.78 364.62 0.55 362.77 0.55L362.77 0.55Q361.27 0.55 360.52-0.43 359.77-1.4 359.82-2.6L359.82-2.6 359.97-8Q359.17-5.7 357.64-3.75 356.12-1.8 354.14-0.63 352.17 0.55 349.92 0.55ZM382.17-1.75L382.17-1.75Q384.67-1.8 386.49-3.1 388.31-4.4 389.37-6.1L389.37-6.1Q389.87-7 391.06-6.55L391.06-6.55Q391.01-6 390.44-4.85 389.87-3.7 388.74-2.48 387.62-1.25 385.87-0.38 384.12 0.5 381.71 0.55L381.71 0.55Q378.31 0.6 375.76-0.93 373.21-2.45 371.84-5.05 370.46-7.65 370.56-10.8L370.56-10.8Q370.67-14.1 371.84-16.7 373.01-19.3 374.89-21.1 376.76-22.9 378.99-23.83 381.21-24.75 383.37-24.75L383.37-24.75Q386.21-24.75 388.01-23.78 389.81-22.8 390.67-21.58 391.51-20.35 391.51-19.6L391.51-19.6Q391.51-18.95 391.04-18.3 390.56-17.65 389.92-17.25 389.26-16.85 388.74-16.85 388.21-16.85 388.06-17.5L388.06-17.5Q388.01-17.8 388.12-18.15 388.21-18.5 388.21-18.7L388.21-18.7Q387.87-20.55 386.56-21.63 385.26-22.7 383.42-22.75L383.42-22.75Q381.12-22.85 379.06-21.33 377.01-19.8 375.71-17.23 374.42-14.65 374.26-11.45L374.26-11.45Q374.17-9 375.12-6.75 376.06-4.5 377.89-3.13 379.71-1.75 382.17-1.75ZM403.06 0.55L403.06 0.55Q400.96 0.55 399.06-0.63 397.16-1.8 395.96-4.05 394.76-6.3 394.76-9.45L394.76-9.45Q394.76-12.25 395.79-14.93 396.81-17.6 398.61-19.75 400.41-21.9 402.79-23.2 405.16-24.5 407.91-24.5L407.91-24.5Q410.71-24.5 412.59-23.58 414.46-22.65 415.21-21.85L415.21-21.85 414.61-3.95Q414.56-3.35 414.79-2.83 415.01-2.3 415.81-2.3L415.81-2.3Q416.31-2.3 417.09-2.75 417.86-3.2 418.46-4L418.46-4Q418.71-4.35 419.09-4.25 419.46-4.15 419.36-3.65L419.36-3.65Q419.06-2.1 417.69-0.78 416.31 0.55 414.46 0.55L414.46 0.55Q412.96 0.55 412.21-0.43 411.46-1.4 411.51-2.6L411.51-2.6 411.71-7.8Q411.16-5.9 409.96-3.95 408.76-2 407.01-0.73 405.26 0.55 403.06 0.55ZM398.41-9.4L398.41-9.4Q398.41-7.55 399.01-5.83 399.61-4.1 400.81-3 402.01-1.9 403.71-1.9L403.71-1.9Q405.26-1.9 406.66-3 408.06-4.1 409.19-5.88 410.31-7.65 411.01-9.7 411.71-11.75 411.81-13.65L411.81-13.65 412.01-18.1Q412.06-18.9 411.99-19.4 411.91-19.9 411.66-20.3L411.66-20.3Q411.11-21.2 409.96-21.85 408.81-22.5 407.36-22.5L407.36-22.5Q405.26-22.5 403.59-21.25 401.91-20 400.76-18 399.61-16 399.01-13.73 398.41-11.45 398.41-9.4ZM424.81-5.2L424.81-5.2 425.51-21.85Q424.41-21.8 423.84-21.73 423.26-21.65 422.76-21.5L422.76-21.5Q422.01-21.25 421.86-20.9L421.86-20.9Q421.66-20.6 421.29-20.7 420.91-20.8 420.96-21.3L420.96-21.3 421.16-23.25Q421.26-23.8 421.91-23.8L421.91-23.8 425.61-23.8 425.81-28.55Q425.86-29.75 426.51-30.48 427.16-31.2 428.96-31.1L428.96-31.1 428.66-23.8 434.61-23.8Q435.31-23.8 435.21-23.25L435.21-23.25 435.01-21.3Q434.96-20.8 434.63-20.7 434.31-20.6 434.11-20.9L434.11-20.9Q433.96-21.25 433.21-21.5L433.21-21.5Q432.56-21.75 431.69-21.8 430.81-21.85 428.56-21.85L428.56-21.85 427.86-6Q427.81-4.15 428.54-3.33 429.26-2.5 430.41-2.4L430.41-2.4Q431.61-2.35 432.74-2.85 433.86-3.35 434.71-4.2L434.71-4.2Q435.01-4.5 435.44-4.25 435.86-4 435.66-3.5L435.66-3.5Q435.01-1.9 433.26-0.75 431.51 0.4 429.51 0.4L429.51 0.4Q428.56 0.4 427.41-0.1 426.26-0.6 425.49-1.83 424.71-3.05 424.81-5.2ZM449.61 0.35L449.61 0.35Q446.66 0.35 444.23-1.23 441.81-2.8 440.51-5.65 439.21-8.5 439.51-12.2L439.51-12.2Q439.86-15.9 441.53-18.7 443.21-21.5 445.86-23.08 448.51-24.65 451.71-24.65L451.71-24.65Q454.66-24.65 457.08-23.08 459.51-21.5 460.88-18.7 462.26-15.9 461.91-12.2L461.91-12.2Q461.61-8.5 459.88-5.65 458.16-2.8 455.48-1.23 452.81 0.35 449.61 0.35ZM442.96-12.2L442.96-12.2Q442.86-9.3 443.73-6.88 444.61-4.45 446.28-3.03 447.96-1.6 450.21-1.6L450.21-1.6Q452.46-1.6 454.26-3.03 456.06-4.45 457.18-6.88 458.31-9.3 458.41-12.2L458.41-12.2Q458.56-15.1 457.66-17.48 456.76-19.85 455.11-21.28 453.46-22.7 451.21-22.7L451.21-22.7Q448.96-22.7 447.13-21.28 445.31-19.85 444.21-17.48 443.11-15.1 442.96-12.2ZM465.11-20.95L465.11-20.95Q465.96-21.5 467.16-22.33 468.36-23.15 469.43-23.85 470.51-24.55 470.86-24.65L470.86-24.65Q471.56-24.9 472.11-24.63 472.66-24.35 472.61-23.7L472.61-23.7 472.01-11.7Q472.71-15.5 474.28-18.25 475.86-21 477.71-22.63 479.56-24.25 480.96-24.65L480.96-24.65Q481.56-24.85 481.93-24.68 482.31-24.5 482.71-24.05L482.71-24.05Q483.51-23.15 483.56-22 483.61-20.85 482.61-20.7L482.61-20.7Q482.26-20.65 481.93-20.78 481.61-20.9 481.36-21L481.36-21Q480.11-21.1 478.51-19.9 476.91-18.7 475.41-16.28 473.91-13.85 472.83-10.33 471.76-6.8 471.56-2.25L471.56-2.25Q471.51-0.95 470.81-0.4 470.11 0.15 468.41-0.05L468.41-0.05 469.41-20.8Q469.31-20.85 469.11-20.83 468.91-20.8 468.51-20.55L468.51-20.55Q466.51-19.5 465.11-20.95ZM490.35-19.05L490.35-19.05Q490.35-17.7 491.18-16.82 492-15.95 493.4-15.25 494.8-14.55 496.4-13.7L496.4-13.7Q498.1-12.85 499.9-11.88 501.7-10.9 502.9-9.47 504.1-8.05 504-5.85L504-5.85Q503.95-3.9 502.65-2.33 501.35-0.75 499.28 0.13 497.2 1 494.7 0.95L494.7 0.95Q491.65 0.9 489.6-0.25 487.55-1.4 486.48-3.03 485.4-4.65 485.3-6.05L485.3-6.05Q485.2-7.7 487.35-8L487.35-8Q488.95-8.25 489.4-7.5L489.4-7.5Q489.65-7.15 489.43-6.7 489.2-6.25 488.95-5.7L488.95-5.7Q489.05-4.65 489.7-3.58 490.35-2.5 491.63-1.75 492.9-1 494.8-0.95L494.8-0.95Q497.4-0.9 499.05-2.27 500.7-3.65 500.75-5.55L500.75-5.55Q500.8-7.05 499.83-7.98 498.85-8.9 497.35-9.63 495.85-10.35 494.3-11.15L494.3-11.15Q492.8-11.95 491.18-12.88 489.55-13.8 488.43-15.2 487.3-16.6 487.35-18.75L487.35-18.75Q487.4-20.65 488.6-22.08 489.8-23.5 491.85-24.3 493.9-25.1 496.4-25L496.4-25Q498.9-24.9 500.48-23.98 502.05-23.05 502.85-21.9 503.65-20.75 503.7-20L503.7-20Q503.75-19.6 503.53-18.93 503.3-18.25 502.15-17.7L502.15-17.7Q501.5-17.4 500.95-17.48 500.4-17.55 500.3-18.05L500.3-18.05Q500.25-18.4 500.38-18.78 500.5-19.15 500.7-19.5L500.7-19.5Q500.8-19.85 500.35-20.7 499.9-21.55 498.85-22.3 497.8-23.05 496.05-23.1L496.05-23.1Q493.4-23.2 491.9-21.98 490.4-20.75 490.35-19.05ZM510.45-2.25L510.45-2.25Q510.3-2.95 511.05-3.58 511.8-4.2 512.9-4.5 514-4.8 514.75-4.45L514.75-4.45Q515.5-4.15 515.55-3.15L515.55-3.15Q515.7-0.85 514.9 1.45 514.1 3.75 512.45 5.68 510.8 7.6 508.25 8.85L508.25 8.85Q507.85 9.05 507.5 8.75 507.15 8.45 507.15 8.05L507.15 8.05Q510.2 6 511.23 3.68 512.25 1.35 511.85-0.55L511.85-0.55Q511.8-1 511.18-1.38 510.55-1.75 510.45-2.25ZM541.99-4.8L541.99-4.8 543.24-28.9Q543.34-30.4 542.29-31.23 541.24-32.05 539.69-32.3L539.69-32.3Q539.29-32.4 539.17-32.73 539.04-33.05 539.24-33.35L539.24-33.35Q539.34-33.55 539.57-33.63 539.79-33.7 539.99-33.7L539.99-33.7 550.49-33.7Q550.74-33.7 550.94-33.65 551.14-33.6 551.24-33.35L551.24-33.35Q551.39-33.05 551.19-32.73 550.99-32.4 550.59-32.3L550.59-32.3Q549.14-32.05 547.97-31.23 546.79-30.4 546.69-28.85L546.69-28.85 545.39-4.8Q545.29-3.3 546.37-2.5 547.44-1.7 548.94-1.4L548.94-1.4Q549.34-1.35 549.49-1.05 549.64-0.75 549.44-0.35L549.44-0.35Q549.34-0.15 549.12-0.08 548.89 0 548.69 0L548.69 0 538.19 0Q537.64 0 537.44-0.4L537.44-0.4Q537.29-0.65 537.47-1 537.64-1.35 538.04-1.4L538.04-1.4Q539.54-1.65 540.72-2.48 541.89-3.3 541.99-4.8ZM556.44-0.15L556.44-0.15 557.34-19.95Q557.09-20.2 556.34-19.7L556.34-19.7Q554.39-18.65 552.99-20.1L552.99-20.1Q553.84-20.65 555.04-21.48 556.24-22.3 557.32-23 558.39-23.7 558.74-23.8L558.74-23.8Q559.44-24.05 559.92-23.78 560.39-23.5 560.34-22.85L560.34-22.85 559.94-15.8Q560.84-18 562.34-19.95 563.84-21.9 565.84-23.13 567.84-24.35 570.24-24.35L570.24-24.35Q571.34-24.35 572.59-23.83 573.84-23.3 574.69-22 575.54-20.7 575.39-18.25L575.39-18.25 574.54-4.25Q574.49-3.45 574.72-2.88 574.94-2.3 575.74-2.3L575.74-2.3Q576.29-2.3 576.94-2.8 577.59-3.3 577.94-4L577.94-4Q578.14-4.35 578.52-4.25 578.89-4.15 578.79-3.65L578.79-3.65Q578.49-2.2 577.32-0.95 576.14 0.3 574.39 0.3L574.39 0.3Q572.89 0.3 572.14-0.68 571.39-1.65 571.44-2.85L571.44-2.85 572.29-18.25Q572.39-19.7 571.47-20.6 570.54-21.5 568.99-21.55L568.99-21.55Q566.54-21.6 564.22-19.55 561.89-17.5 560.39-13.1L560.39-13.1Q560.14-12.35 559.97-11.4 559.79-10.45 559.74-9.3L559.74-9.3 559.49-2.95Q559.44-1.25 558.82-0.58 558.19 0.1 556.44-0.15ZM586.74-19.05L586.74-19.05Q586.74-17.7 587.56-16.82 588.39-15.95 589.79-15.25 591.19-14.55 592.79-13.7L592.79-13.7Q594.49-12.85 596.29-11.88 598.09-10.9 599.29-9.47 600.49-8.05 600.39-5.85L600.39-5.85Q600.34-3.9 599.04-2.33 597.74-0.75 595.66 0.13 593.59 1 591.09 0.95L591.09 0.95Q588.04 0.9 585.99-0.25 583.94-1.4 582.86-3.03 581.79-4.65 581.69-6.05L581.69-6.05Q581.59-7.7 583.74-8L583.74-8Q585.34-8.25 585.79-7.5L585.79-7.5Q586.04-7.15 585.81-6.7 585.59-6.25 585.34-5.7L585.34-5.7Q585.44-4.65 586.09-3.58 586.74-2.5 588.01-1.75 589.29-1 591.19-0.95L591.19-0.95Q593.79-0.9 595.44-2.27 597.09-3.65 597.14-5.55L597.14-5.55Q597.19-7.05 596.21-7.98 595.24-8.9 593.74-9.63 592.24-10.35 590.69-11.15L590.69-11.15Q589.19-11.95 587.56-12.88 585.94-13.8 584.81-15.2 583.69-16.6 583.74-18.75L583.74-18.75Q583.79-20.65 584.99-22.08 586.19-23.5 588.24-24.3 590.29-25.1 592.79-25L592.79-25Q595.29-24.9 596.86-23.98 598.44-23.05 599.24-21.9 600.04-20.75 600.09-20L600.09-20Q600.14-19.6 599.91-18.93 599.69-18.25 598.54-17.7L598.54-17.7Q597.89-17.4 597.34-17.48 596.79-17.55 596.69-18.05L596.69-18.05Q596.64-18.4 596.76-18.78 596.89-19.15 597.09-19.5L597.09-19.5Q597.19-19.85 596.74-20.7 596.29-21.55 595.24-22.3 594.19-23.05 592.44-23.1L592.44-23.1Q589.79-23.2 588.29-21.98 586.79-20.75 586.74-19.05ZM610.79-18.6L610.04 5.7 609.94 8.1Q609.89 9.55 609.26 10.28 608.64 11 606.69 10.8L606.69 10.8 607.69-14.7Q606.14-12.2 605.24-9.3L605.24-9.3Q604.94-9.3 604.59-9.68 604.24-10.05 604.49-11.05L604.49-11.05Q604.99-12.95 605.84-14.73 606.69-16.5 607.79-18L607.79-18 607.99-22.85Q607.99-24.1 609.01-24.65 610.04-25.2 610.99-24.7L610.99-24.7 610.89-21.3Q612.89-23.05 615.09-23.9 617.29-24.75 619.29-24.5L619.29-24.5Q622.14-24.2 623.99-22.35 625.84-20.5 626.64-17.7 627.44-14.9 627.04-11.65L627.04-11.65Q626.74-8.8 625.44-6.33 624.14-3.85 622.24-2.15 620.34-0.45 618.14 0.15L618.14 0.15Q616.74 0.5 614.94 0.38 613.14 0.25 611.94-0.6L611.94-0.6Q611.39-1 611.44-1.45 611.49-1.9 611.64-2.1L611.64-2.1Q612.94-1.25 614.74-1.25 616.54-1.25 618.29-2.35L618.29-2.35Q620.14-3.5 621.56-5.7 622.99-7.9 623.44-10.95L623.44-10.95Q623.84-13.75 623.34-16.1 622.84-18.45 621.59-19.98 620.34-21.5 618.44-21.8L618.44-21.8Q616.64-22.15 614.64-21.28 612.64-20.4 610.79-18.6L610.79-18.6ZM633.03-33.3L633.03-33.3Q632.88-33.8 633.48-34.02 634.08-34.25 635.03-34.1 635.98-33.95 636.88-33.45 637.78-32.95 638.18-32.05L638.18-32.05Q638.58-31.1 637.88-30.13 637.18-29.15 636.23-28.9L636.23-28.9Q635.78-28.75 634.91-28.9 634.03-29.05 633.93-29.9L633.93-29.9Q633.93-30.3 633.73-31.25 633.53-32.2 633.03-33.3ZM633.83-2.55L633.83-2.55 634.88-20.35Q634.83-20.4 634.66-20.38 634.48-20.35 633.98-20.1L633.98-20.1Q631.98-19.05 630.68-20.5L630.68-20.5Q631.48-21.05 632.68-21.88 633.88-22.7 634.96-23.4 636.03-24.1 636.38-24.2L636.38-24.2Q637.08-24.45 637.58-24.2 638.08-23.95 638.03-23.3L638.03-23.3 636.93-3.9Q636.88-3.3 637.11-2.78 637.33-2.25 638.13-2.25L638.13-2.25Q638.63-2.25 639.41-2.7 640.18-3.15 640.78-3.95L640.78-3.95Q641.03-4.3 641.41-4.2 641.78-4.1 641.68-3.6L641.68-3.6Q641.38-2.05 640.01-0.73 638.63 0.6 636.78 0.6L636.78 0.6Q635.28 0.6 634.53-0.38 633.78-1.35 633.83-2.55ZM644.03-20.95L644.03-20.95Q644.88-21.5 646.08-22.33 647.28-23.15 648.36-23.85 649.43-24.55 649.78-24.65L649.78-24.65Q650.48-24.9 651.03-24.63 651.58-24.35 651.53-23.7L651.53-23.7 650.93-11.7Q651.63-15.5 653.21-18.25 654.78-21 656.63-22.63 658.48-24.25 659.88-24.65L659.88-24.65Q660.48-24.85 660.86-24.68 661.23-24.5 661.63-24.05L661.63-24.05Q662.43-23.15 662.48-22 662.53-20.85 661.53-20.7L661.53-20.7Q661.18-20.65 660.86-20.78 660.53-20.9 660.28-21L660.28-21Q659.03-21.1 657.43-19.9 655.83-18.7 654.33-16.28 652.83-13.85 651.76-10.33 650.68-6.8 650.48-2.25L650.48-2.25Q650.43-0.95 649.73-0.4 649.03 0.15 647.33-0.05L647.33-0.05 648.33-20.8Q648.23-20.85 648.03-20.83 647.83-20.8 647.43-20.55L647.43-20.55Q645.43-19.5 644.03-20.95ZM666.43-33.3L666.43-33.3Q666.28-33.8 666.88-34.02 667.48-34.25 668.43-34.1 669.38-33.95 670.28-33.45 671.18-32.95 671.58-32.05L671.58-32.05Q671.98-31.1 671.28-30.13 670.58-29.15 669.63-28.9L669.63-28.9Q669.18-28.75 668.3-28.9 667.43-29.05 667.33-29.9L667.33-29.9Q667.33-30.3 667.13-31.25 666.93-32.2 666.43-33.3ZM667.23-2.55L667.23-2.55 668.28-20.35Q668.23-20.4 668.05-20.38 667.88-20.35 667.38-20.1L667.38-20.1Q665.38-19.05 664.08-20.5L664.08-20.5Q664.88-21.05 666.08-21.88 667.28-22.7 668.35-23.4 669.43-24.1 669.78-24.2L669.78-24.2Q670.48-24.45 670.98-24.2 671.48-23.95 671.43-23.3L671.43-23.3 670.33-3.9Q670.28-3.3 670.5-2.78 670.73-2.25 671.53-2.25L671.53-2.25Q672.03-2.25 672.8-2.7 673.58-3.15 674.18-3.95L674.18-3.95Q674.43-4.3 674.8-4.2 675.18-4.1 675.08-3.6L675.08-3.6Q674.78-2.05 673.4-0.73 672.03 0.6 670.18 0.6L670.18 0.6Q668.68 0.6 667.93-0.38 667.18-1.35 667.23-2.55ZM680.88-0.15L680.88-0.15 681.78-19.95Q681.53-20.2 680.78-19.7L680.78-19.7Q678.83-18.65 677.43-20.1L677.43-20.1Q678.28-20.65 679.48-21.48 680.68-22.3 681.75-23 682.83-23.7 683.18-23.8L683.18-23.8Q683.88-24.05 684.35-23.78 684.83-23.5 684.78-22.85L684.78-22.85 684.38-15.8Q685.28-18 686.78-19.95 688.28-21.9 690.28-23.13 692.28-24.35 694.68-24.35L694.68-24.35Q695.78-24.35 697.03-23.83 698.28-23.3 699.13-22 699.98-20.7 699.83-18.25L699.83-18.25 698.98-4.25Q698.93-3.45 699.15-2.88 699.38-2.3 700.18-2.3L700.18-2.3Q700.73-2.3 701.38-2.8 702.03-3.3 702.38-4L702.38-4Q702.58-4.35 702.95-4.25 703.33-4.15 703.23-3.65L703.23-3.65Q702.93-2.2 701.75-0.95 700.58 0.3 698.83 0.3L698.83 0.3Q697.33 0.3 696.58-0.68 695.83-1.65 695.88-2.85L695.88-2.85 696.73-18.25Q696.83-19.7 695.9-20.6 694.98-21.5 693.43-21.55L693.43-21.55Q690.98-21.6 688.65-19.55 686.33-17.5 684.83-13.1L684.83-13.1Q684.58-12.35 684.4-11.4 684.23-10.45 684.18-9.3L684.18-9.3 683.93-2.95Q683.88-1.25 683.25-0.58 682.63 0.1 680.88-0.15ZM726.27-21.85L725.67-4.6Q725.52-0.1 724.45 3.45 723.37 7 721 9.03 718.62 11.05 714.47 11.05L714.47 11.05Q712.07 11.05 710.22 10.33 708.37 9.6 707.27 8.58 706.17 7.55 705.92 6.7L705.92 6.7Q705.72 6 706.22 5.35 706.72 4.7 707.82 4.35L707.82 4.35Q708.47 4.15 709.05 4.17 709.62 4.2 709.82 4.6L709.82 4.6Q710.07 4.95 710 5.43 709.92 5.9 709.77 6.3L709.77 6.3Q709.82 6.6 710.35 7.3 710.87 8 711.97 8.58 713.07 9.15 714.72 9.15L714.72 9.15Q716.97 9.15 718.47 8.03 719.97 6.9 720.85 5.03 721.72 3.15 722.15 0.98 722.57-1.2 722.62-3.25L722.62-3.25 722.82-8.7Q722.47-7.25 721.75-5.68 721.02-4.1 719.95-2.73 718.87-1.35 717.37-0.48 715.87 0.4 713.97 0.4L713.97 0.4Q711.82 0.4 710-0.8 708.17-2 707.07-4.23 705.97-6.45 705.97-9.45L705.97-9.45Q705.97-12.05 706.87-14.7 707.77-17.35 709.45-19.58 711.12-21.8 713.42-23.15 715.72-24.5 718.52-24.5L718.52-24.5Q721.62-24.5 723.57-23.58 725.52-22.65 726.27-21.85L726.27-21.85ZM709.17-9.4L709.17-9.4Q709.17-6.35 710.5-4.15 711.82-1.95 714.47-1.95L714.47-1.95Q716.22-1.95 717.7-3.03 719.17-4.1 720.3-5.85 721.42-7.6 722.07-9.63 722.72-11.65 722.82-13.55L722.82-13.55 723.12-19.4Q722.77-20.6 721.5-21.53 720.22-22.45 718.27-22.45L718.27-22.45Q715.97-22.45 714.27-21.15 712.57-19.85 711.45-17.8 710.32-15.75 709.75-13.53 709.17-11.3 709.17-9.4ZM751.27-4L752.62-28.5Q752.72-30 751.59-30.83 750.47-31.65 749.02-31.9L749.02-31.9Q748.62-32 748.44-32.33 748.27-32.65 748.47-32.95L748.47-32.95Q748.82-33.3 749.32-33.3L749.32-33.3 759.82-33.3Q760.02-33.3 760.22-33.23 760.42-33.15 760.47-32.95L760.47-32.95Q760.67-32.65 760.49-32.33 760.32-32 759.92-31.9L759.92-31.9Q758.37-31.65 757.24-30.83 756.12-30 756.02-28.5L756.02-28.5 754.62-2.35 763.17-2.35Q765.27-2.35 766.49-2.5 767.72-2.65 768.44-3.13 769.17-3.6 769.64-4.63 770.12-5.65 770.62-7.4L770.62-7.4Q770.77-7.95 771.34-7.88 771.92-7.8 771.87-7.1L771.87-7.1 771.57-1.25Q771.52-0.05 770.47-0.05L770.47-0.05 747.32-0.15Q746.67-0.15 746.64-0.78 746.62-1.4 747.12-1.45L747.12-1.45Q747.92-1.6 748.87-1.93 749.82-2.25 750.52-2.78 751.22-3.3 751.27-4L751.27-4ZM788.52-2.05L788.52-2.05Q790.52-1.9 792.09-2.55 793.67-3.2 794.77-4.2 795.87-5.2 796.37-6L796.37-6Q796.62-6.45 797.19-6.55 797.77-6.65 798.17-6.25L798.17-6.25Q798.02-5.75 797.42-4.67 796.82-3.6 795.64-2.45 794.47-1.3 792.67-0.48 790.87 0.35 788.42 0.35L788.42 0.35Q785.22 0.35 782.67-1.1 780.12-2.55 778.69-5.18 777.27-7.8 777.37-11.15L777.37-11.15Q777.47-14.35 778.72-16.9 779.97-19.45 781.92-21.23 783.87-23 786.22-23.93 788.57-24.85 790.82-24.85L790.82-24.85Q792.97-24.85 794.34-24.18 795.72-23.5 796.52-22.55 797.32-21.6 797.64-20.68 797.97-19.75 797.97-19.15L797.97-19.15Q797.97-17.2 796.74-15.55 795.52-13.9 793.49-12.7 791.47-11.5 788.97-10.88 786.47-10.25 783.87-10.25L783.87-10.25Q782.97-10.25 782.67-10.78 782.37-11.3 782.52-11.75L782.52-11.75Q784.37-11.75 786.44-12.3 788.52-12.85 790.37-13.83 792.22-14.8 793.39-16.03 794.57-17.25 794.57-18.55L794.57-18.55Q794.57-20.45 793.39-21.63 792.22-22.8 790.32-22.85L790.32-22.85Q787.77-22.9 785.74-21.35 783.72-19.8 782.49-17.28 781.27-14.75 781.12-11.8L781.12-11.8Q781.02-9.25 781.84-7.1 782.67-4.95 784.37-3.6 786.07-2.25 788.52-2.05ZM810.36 0.55L810.36 0.55Q808.26 0.55 806.36-0.63 804.46-1.8 803.26-4.05 802.06-6.3 802.06-9.45L802.06-9.45Q802.06-12.25 803.09-14.93 804.11-17.6 805.91-19.75 807.71-21.9 810.09-23.2 812.46-24.5 815.21-24.5L815.21-24.5Q818.01-24.5 819.89-23.58 821.76-22.65 822.51-21.85L822.51-21.85 821.91-3.95Q821.86-3.35 822.09-2.83 822.31-2.3 823.11-2.3L823.11-2.3Q823.61-2.3 824.39-2.75 825.16-3.2 825.76-4L825.76-4Q826.01-4.35 826.39-4.25 826.76-4.15 826.66-3.65L826.66-3.65Q826.36-2.1 824.99-0.78 823.61 0.55 821.76 0.55L821.76 0.55Q820.26 0.55 819.51-0.43 818.76-1.4 818.81-2.6L818.81-2.6 819.01-7.8Q818.46-5.9 817.26-3.95 816.06-2 814.31-0.73 812.56 0.55 810.36 0.55ZM805.71-9.4L805.71-9.4Q805.71-7.55 806.31-5.83 806.91-4.1 808.11-3 809.31-1.9 811.01-1.9L811.01-1.9Q812.56-1.9 813.96-3 815.36-4.1 816.49-5.88 817.61-7.65 818.31-9.7 819.01-11.75 819.11-13.65L819.11-13.65 819.31-18.1Q819.36-18.9 819.29-19.4 819.21-19.9 818.96-20.3L818.96-20.3Q818.41-21.2 817.26-21.85 816.11-22.5 814.66-22.5L814.66-22.5Q812.56-22.5 810.89-21.25 809.21-20 808.06-18 806.91-16 806.31-13.73 805.71-11.45 805.71-9.4ZM828.31-20.95L828.31-20.95Q829.16-21.5 830.36-22.33 831.56-23.15 832.64-23.85 833.71-24.55 834.06-24.65L834.06-24.65Q834.76-24.9 835.31-24.63 835.86-24.35 835.81-23.7L835.81-23.7 835.21-11.7Q835.91-15.5 837.49-18.25 839.06-21 840.91-22.63 842.76-24.25 844.16-24.65L844.16-24.65Q844.76-24.85 845.14-24.68 845.51-24.5 845.91-24.05L845.91-24.05Q846.71-23.15 846.76-22 846.81-20.85 845.81-20.7L845.81-20.7Q845.46-20.65 845.14-20.78 844.81-20.9 844.56-21L844.56-21Q843.31-21.1 841.71-19.9 840.11-18.7 838.61-16.28 837.11-13.85 836.04-10.33 834.96-6.8 834.76-2.25L834.76-2.25Q834.71-0.95 834.01-0.4 833.31 0.15 831.61-0.05L831.61-0.05 832.61-20.8Q832.51-20.85 832.31-20.83 832.11-20.8 831.71-20.55L831.71-20.55Q829.71-19.5 828.31-20.95ZM851.11-0.15L851.11-0.15 852.01-19.95Q851.76-20.2 851.01-19.7L851.01-19.7Q849.06-18.65 847.66-20.1L847.66-20.1Q848.51-20.65 849.71-21.48 850.91-22.3 851.98-23 853.06-23.7 853.41-23.8L853.41-23.8Q854.11-24.05 854.58-23.78 855.06-23.5 855.01-22.85L855.01-22.85 854.61-15.8Q855.51-18 857.01-19.95 858.51-21.9 860.51-23.13 862.51-24.35 864.91-24.35L864.91-24.35Q866.01-24.35 867.26-23.83 868.51-23.3 869.36-22 870.21-20.7 870.06-18.25L870.06-18.25 869.21-4.25Q869.16-3.45 869.38-2.88 869.61-2.3 870.41-2.3L870.41-2.3Q870.96-2.3 871.61-2.8 872.26-3.3 872.61-4L872.61-4Q872.81-4.35 873.18-4.25 873.56-4.15 873.46-3.65L873.46-3.65Q873.16-2.2 871.98-0.95 870.81 0.3 869.06 0.3L869.06 0.3Q867.56 0.3 866.81-0.68 866.06-1.65 866.11-2.85L866.11-2.85 866.96-18.25Q867.06-19.7 866.13-20.6 865.21-21.5 863.66-21.55L863.66-21.55Q861.21-21.6 858.88-19.55 856.56-17.5 855.06-13.1L855.06-13.1Q854.81-12.35 854.63-11.4 854.46-10.45 854.41-9.3L854.41-9.3 854.16-2.95Q854.11-1.25 853.48-0.58 852.86 0.1 851.11-0.15ZM887.51-2.05L887.51-2.05Q889.51-1.9 891.08-2.55 892.66-3.2 893.76-4.2 894.86-5.2 895.36-6L895.36-6Q895.61-6.45 896.18-6.55 896.76-6.65 897.16-6.25L897.16-6.25Q897.01-5.75 896.41-4.67 895.81-3.6 894.63-2.45 893.46-1.3 891.66-0.48 889.86 0.35 887.41 0.35L887.41 0.35Q884.21 0.35 881.66-1.1 879.11-2.55 877.68-5.18 876.26-7.8 876.36-11.15L876.36-11.15Q876.46-14.35 877.71-16.9 878.96-19.45 880.91-21.23 882.86-23 885.21-23.93 887.56-24.85 889.81-24.85L889.81-24.85Q891.96-24.85 893.33-24.18 894.71-23.5 895.51-22.55 896.31-21.6 896.63-20.68 896.96-19.75 896.96-19.15L896.96-19.15Q896.96-17.2 895.73-15.55 894.51-13.9 892.48-12.7 890.46-11.5 887.96-10.88 885.46-10.25 882.86-10.25L882.86-10.25Q881.96-10.25 881.66-10.78 881.36-11.3 881.51-11.75L881.51-11.75Q883.36-11.75 885.43-12.3 887.51-12.85 889.36-13.83 891.21-14.8 892.38-16.03 893.56-17.25 893.56-18.55L893.56-18.55Q893.56-20.45 892.38-21.63 891.21-22.8 889.31-22.85L889.31-22.85Q886.76-22.9 884.73-21.35 882.71-19.8 881.48-17.28 880.26-14.75 880.11-11.8L880.11-11.8Q880.01-9.25 880.83-7.1 881.66-4.95 883.36-3.6 885.06-2.25 887.51-2.05ZM900.2-20.95L900.2-20.95Q901.05-21.5 902.25-22.33 903.45-23.15 904.53-23.85 905.6-24.55 905.95-24.65L905.95-24.65Q906.65-24.9 907.2-24.63 907.75-24.35 907.7-23.7L907.7-23.7 907.1-11.7Q907.8-15.5 909.38-18.25 910.95-21 912.8-22.63 914.65-24.25 916.05-24.65L916.05-24.65Q916.65-24.85 917.03-24.68 917.4-24.5 917.8-24.05L917.8-24.05Q918.6-23.15 918.65-22 918.7-20.85 917.7-20.7L917.7-20.7Q917.35-20.65 917.03-20.78 916.7-20.9 916.45-21L916.45-21Q915.2-21.1 913.6-19.9 912-18.7 910.5-16.28 909-13.85 907.93-10.33 906.85-6.8 906.65-2.25L906.65-2.25Q906.6-0.95 905.9-0.4 905.2 0.15 903.5-0.05L903.5-0.05 904.5-20.8Q904.4-20.85 904.2-20.83 904-20.8 903.6-20.55L903.6-20.55Q901.6-19.5 900.2-20.95ZM925.45-19.05L925.45-19.05Q925.45-17.7 926.28-16.82 927.1-15.95 928.5-15.25 929.9-14.55 931.5-13.7L931.5-13.7Q933.2-12.85 935-11.88 936.8-10.9 938-9.47 939.2-8.05 939.1-5.85L939.1-5.85Q939.05-3.9 937.75-2.33 936.45-0.75 934.38 0.13 932.3 1 929.8 0.95L929.8 0.95Q926.75 0.9 924.7-0.25 922.65-1.4 921.58-3.03 920.5-4.65 920.4-6.05L920.4-6.05Q920.3-7.7 922.45-8L922.45-8Q924.05-8.25 924.5-7.5L924.5-7.5Q924.75-7.15 924.53-6.7 924.3-6.25 924.05-5.7L924.05-5.7Q924.15-4.65 924.8-3.58 925.45-2.5 926.73-1.75 928-1 929.9-0.95L929.9-0.95Q932.5-0.9 934.15-2.27 935.8-3.65 935.85-5.55L935.85-5.55Q935.9-7.05 934.93-7.98 933.95-8.9 932.45-9.63 930.95-10.35 929.4-11.15L929.4-11.15Q927.9-11.95 926.28-12.88 924.65-13.8 923.53-15.2 922.4-16.6 922.45-18.75L922.45-18.75Q922.5-20.65 923.7-22.08 924.9-23.5 926.95-24.3 929-25.1 931.5-25L931.5-25Q934-24.9 935.58-23.98 937.15-23.05 937.95-21.9 938.75-20.75 938.8-20L938.8-20Q938.85-19.6 938.63-18.93 938.4-18.25 937.25-17.7L937.25-17.7Q936.6-17.4 936.05-17.48 935.5-17.55 935.4-18.05L935.4-18.05Q935.35-18.4 935.48-18.78 935.6-19.15 935.8-19.5L935.8-19.5Q935.9-19.85 935.45-20.7 935-21.55 933.95-22.3 932.9-23.05 931.15-23.1L931.15-23.1Q928.5-23.2 927-21.98 925.5-20.75 925.45-19.05Z" opacity="1" transform="matrix(1,0,0,1,0,0)" fill="#071e3e" class="slogan-text-1" data-fill-palette-color="secondary" id="text-1"></path></svg></g></svg></g></svg></g></svg></g><g></g></svg></g><defs></defs></svg><rect width="328.3722791926404" height="94.0226415994753" fill="none" stroke="none" visibility="hidden"></rect></g></svg></g></svg>